<svg width="28" height="22" viewBox="0 0 28 22" fill="none" xmlns="http://www.w3.org/2000/svg">
<path d="M22.5643 8.42627V9.3161H27.4734V21.5547H15.5V8.53579C15.5 3.48429 19.3182 0.554688 24.3337 0.554688H27.5V5.0586H25.9035C25.4667 5.04376 25.0316 5.1202 24.6243 5.28331C24.217 5.44642 23.8461 5.69281 23.534 6.00758C23.2219 6.32236 22.975 6.69898 22.8084 7.1147C22.6417 7.53042 22.5586 7.9766 22.5643 8.42627Z" fill="#FF544A"/>
<path d="M7.547 8.40931V9.30029H12.5V21.5547H0.5V8.51897C0.50135 8.06043 0.532709 7.60249 0.593929 7.14823C0.593929 7.07969 0.593929 7.01115 0.593929 6.9152C0.856178 5.3345 1.62591 3.88781 2.78186 2.80298C3.39795 2.24047 4.09517 1.77814 4.84899 1.43224C5.05034 1.35 5.22481 1.26776 5.3322 1.24034C6.57956 0.777502 7.89775 0.545416 9.22486 0.554971H12.4195V5.0647H10.9833C10.5403 5.04437 10.0978 5.11574 9.6825 5.27452C9.26721 5.4333 8.88762 5.67621 8.56662 5.98865C8.24562 6.30108 7.98984 6.67659 7.81462 7.09259C7.63939 7.50858 7.54836 7.95646 7.547 8.40931Z" fill="#FF544A"/>
</svg>
