<svg width="30" height="30" viewBox="0 0 30 30" fill="none" xmlns="http://www.w3.org/2000/svg">
<path d="M29.999 11.898V11.8954C29.999 11.8704 29.9976 11.8456 29.9955 11.8209C29.9949 11.8142 29.994 11.8075 29.9933 11.8007C29.9912 11.7814 29.9885 11.7622 29.9852 11.7433C29.984 11.7361 29.9827 11.729 29.9813 11.7219C29.9766 11.6987 29.9713 11.6758 29.9648 11.6532C29.9642 11.651 29.9636 11.6487 29.963 11.6465C29.9561 11.6234 29.9482 11.6007 29.9395 11.5783C29.9362 11.5698 29.9326 11.5614 29.929 11.5529C29.9226 11.5378 29.9158 11.5228 29.9085 11.5081C29.9043 11.4996 29.9002 11.4909 29.8958 11.4825C29.8848 11.4619 29.8732 11.4418 29.8606 11.4221C29.8559 11.4148 29.8508 11.4077 29.8459 11.4005C29.8361 11.3862 29.8259 11.3721 29.8153 11.3584C29.8097 11.3511 29.804 11.3438 29.7981 11.3366C29.7826 11.3179 29.7667 11.2996 29.7497 11.2822C29.7484 11.2809 29.7471 11.2795 29.7457 11.2781C29.7276 11.2597 29.7082 11.2423 29.6884 11.2254C29.6859 11.2233 29.6838 11.2209 29.6813 11.2189L28.1826 9.97521V6.15312C28.1826 5.0223 27.2627 4.1023 26.1319 4.1023H21.1061L17.0575 0.742164C15.8649 -0.247388 14.134 -0.247388 12.9415 0.742164L8.89282 4.10224H3.86705C2.73629 4.10224 1.81634 5.02224 1.81634 6.15306V9.97516L0.317626 11.219C0.315165 11.2211 0.312997 11.2234 0.310536 11.2255C0.290674 11.2424 0.271338 11.2598 0.253175 11.2782C0.251827 11.2796 0.250538 11.281 0.249191 11.2824C0.232258 11.2998 0.216262 11.318 0.200852 11.3367C0.194935 11.3439 0.189251 11.3512 0.183568 11.3585C0.172963 11.3723 0.162826 11.3864 0.153042 11.4007C0.14812 11.4079 0.142964 11.4149 0.138276 11.4222C0.125738 11.4418 0.114078 11.462 0.103121 11.4826C0.0986099 11.4911 0.094567 11.4997 0.090407 11.5082C0.0831417 11.5229 0.076345 11.5379 0.0698999 11.553C0.0663258 11.5614 0.0626931 11.5699 0.059412 11.5784C0.0507404 11.6008 0.0427134 11.6234 0.0359167 11.6466C0.0352722 11.6488 0.0347449 11.651 0.0341004 11.6533C0.0275967 11.6759 0.0222649 11.6988 0.0175775 11.722C0.0161713 11.7291 0.0149409 11.7362 0.0137105 11.7434C0.0103707 11.7624 0.00767552 11.7815 0.00556621 11.8009C0.00486311 11.8076 0.00398424 11.8143 0.00339832 11.821C0.0014062 11.8456 0 11.8704 0 11.8954V11.898V11.8985V26.7773C0 27.6983 0.388932 28.5297 1.01047 29.1176C1.02811 29.1352 1.0458 29.1527 1.06467 29.1685C1.63635 29.685 2.3933 30 3.22254 30H26.7764C27.6057 30 28.3627 29.6849 28.9345 29.1684C28.9532 29.1525 28.9707 29.1353 28.9883 29.1177C29.6099 28.5299 29.999 27.6984 29.999 26.7773V11.8985C29.999 11.8984 29.999 11.8982 29.999 11.898ZM3.86705 5.86009H26.1319C26.2934 5.86009 26.4249 5.99152 26.4249 6.15306V12.99L25.9275 13.4028L15.935 21.6959C15.3929 22.1457 14.606 22.1457 14.064 21.6959L4.07142 13.4028L3.5741 12.99V6.15306C3.5741 5.99152 3.70552 5.86009 3.86705 5.86009ZM1.75775 26.7773V13.7669L2.13579 14.0807C2.13602 14.0808 2.13625 14.0811 2.13649 14.0813L10.7184 21.2035L1.84775 27.2829C1.78957 27.1253 1.75775 26.9549 1.75775 26.7773ZM12.1248 22.3708L12.9415 23.0486C14.134 24.0383 15.865 24.0382 17.0575 23.0486L17.8742 22.3708L26.4414 28.2422H3.55746L12.1248 22.3708ZM19.2806 21.2036L27.8624 14.0813C27.8626 14.0811 27.8629 14.0808 27.8631 14.0807L28.2412 13.7669V26.7773C28.2412 26.9549 28.2093 27.1253 28.1512 27.2829L19.2806 21.2036ZM14.064 2.09495C14.606 1.64511 15.3929 1.64511 15.935 2.09495L18.3537 4.1023H11.6453L14.064 2.09495Z" fill="#142535"/>
<path d="M7.70508 9.66672C7.70508 10.152 8.09858 10.5454 8.58396 10.5454H16.904C17.3894 10.5454 17.7829 10.152 17.7829 9.66672C17.7829 9.18148 17.3894 8.78809 16.904 8.78809H8.58396C8.09858 8.78809 7.70508 9.18148 7.70508 9.66672Z" fill="white"/>
<path d="M8.58396 14.062H21.4156C21.8251 14.062 22.1681 13.7815 22.2657 13.4024C22.2838 13.3321 22.2945 13.2588 22.2945 13.1828C22.2945 12.6973 21.901 12.3037 21.4156 12.3037H8.58396C8.09858 12.3037 7.70508 12.6973 7.70508 13.1828C7.70508 13.2588 7.71574 13.3321 7.73385 13.4024C7.83146 13.7815 8.17452 14.062 8.58396 14.062Z" fill="white"/>
</svg>
