<svg width="620" height="440" viewBox="0 0 620 440" fill="none" xmlns="http://www.w3.org/2000/svg">
<g filter="url(#filter0_d_4288_5410)">
<rect x="38" width="544" height="338" rx="25" fill="white"/>
</g>
<path d="M79.368 29.2H75.88V39H73.728V29.2H70.24V27.432H79.368V29.2ZM80.8244 32.216C81.0804 31.7253 81.3844 31.3413 81.7364 31.064C82.0884 30.7813 82.5044 30.64 82.9844 30.64C83.363 30.64 83.667 30.7227 83.8964 30.888L83.7684 32.368C83.7417 32.464 83.7017 32.5333 83.6484 32.576C83.6004 32.6133 83.5337 32.632 83.4484 32.632C83.3684 32.632 83.2484 32.6187 83.0884 32.592C82.9337 32.5653 82.7817 32.552 82.6324 32.552C82.4137 32.552 82.219 32.584 82.0484 32.648C81.8777 32.712 81.723 32.8053 81.5844 32.928C81.451 33.0453 81.331 33.1893 81.2244 33.36C81.123 33.5307 81.027 33.7253 80.9364 33.944V39H78.9604V30.792H80.1204C80.323 30.792 80.4644 30.8293 80.5444 30.904C80.6244 30.9733 80.6777 31.1013 80.7044 31.288L80.8244 32.216ZM89.1558 35.496C88.5851 35.5227 88.1051 35.5733 87.7158 35.648C87.3264 35.7173 87.0144 35.808 86.7798 35.92C86.5451 36.032 86.3771 36.1627 86.2758 36.312C86.1744 36.4613 86.1238 36.624 86.1238 36.8C86.1238 37.1467 86.2251 37.3947 86.4278 37.544C86.6358 37.6933 86.9051 37.768 87.2358 37.768C87.6411 37.768 87.9904 37.696 88.2838 37.552C88.5824 37.4027 88.8731 37.1787 89.1558 36.88V35.496ZM84.6278 31.936C85.5718 31.072 86.7078 30.64 88.0358 30.64C88.5158 30.64 88.9451 30.72 89.3238 30.88C89.7024 31.0347 90.0224 31.2533 90.2838 31.536C90.5451 31.8133 90.7424 32.1467 90.8758 32.536C91.0144 32.9253 91.0838 33.352 91.0838 33.816V39H90.1878C90.0011 39 89.8571 38.9733 89.7558 38.92C89.6544 38.8613 89.5744 38.7467 89.5158 38.576L89.3398 37.984C89.1318 38.1707 88.9291 38.336 88.7318 38.48C88.5344 38.6187 88.3291 38.736 88.1158 38.832C87.9024 38.928 87.6731 39 87.4278 39.048C87.1878 39.1013 86.9211 39.128 86.6278 39.128C86.2811 39.128 85.9611 39.0827 85.6678 38.992C85.3744 38.896 85.1211 38.7547 84.9078 38.568C84.6944 38.3813 84.5291 38.1493 84.4118 37.872C84.2944 37.5947 84.2358 37.272 84.2358 36.904C84.2358 36.696 84.2704 36.4907 84.3398 36.288C84.4091 36.08 84.5211 35.8827 84.6758 35.696C84.8358 35.5093 85.0411 35.3333 85.2918 35.168C85.5424 35.0027 85.8491 34.8587 86.2118 34.736C86.5798 34.6133 87.0064 34.5147 87.4918 34.44C87.9771 34.36 88.5318 34.312 89.1558 34.296V33.816C89.1558 33.2667 89.0384 32.8613 88.8038 32.6C88.5691 32.3333 88.2304 32.2 87.7878 32.2C87.4678 32.2 87.2011 32.2373 86.9878 32.312C86.7798 32.3867 86.5958 32.472 86.4358 32.568C86.2758 32.6587 86.1291 32.7413 85.9958 32.816C85.8678 32.8907 85.7238 32.928 85.5638 32.928C85.4251 32.928 85.3078 32.8933 85.2118 32.824C85.1158 32.7493 85.0384 32.664 84.9798 32.568L84.6278 31.936ZM94.7928 31.8C94.9581 31.6347 95.1314 31.4827 95.3128 31.344C95.4994 31.2 95.6941 31.08 95.8968 30.984C96.1048 30.8827 96.3261 30.8053 96.5608 30.752C96.7954 30.6933 97.0514 30.664 97.3288 30.664C97.7768 30.664 98.1741 30.7413 98.5208 30.896C98.8674 31.0453 99.1554 31.2587 99.3848 31.536C99.6194 31.808 99.7954 32.136 99.9128 32.52C100.035 32.8987 100.097 33.3173 100.097 33.776V39H98.1208V33.776C98.1208 33.2747 98.0061 32.888 97.7768 32.616C97.5474 32.3387 97.1981 32.2 96.7288 32.2C96.3874 32.2 96.0674 32.2773 95.7688 32.432C95.4701 32.5867 95.1874 32.7973 94.9208 33.064V39H92.9448V30.792H94.1528C94.4088 30.792 94.5768 30.912 94.6568 31.152L94.7928 31.8ZM106.984 32.392C106.931 32.4773 106.875 32.5387 106.816 32.576C106.757 32.608 106.683 32.624 106.592 32.624C106.496 32.624 106.392 32.5973 106.28 32.544C106.173 32.4907 106.048 32.432 105.904 32.368C105.76 32.2987 105.595 32.2373 105.408 32.184C105.227 32.1307 105.011 32.104 104.76 32.104C104.371 32.104 104.064 32.1867 103.84 32.352C103.621 32.5173 103.512 32.7333 103.512 33C103.512 33.176 103.568 33.3253 103.68 33.448C103.797 33.5653 103.949 33.6693 104.136 33.76C104.328 33.8507 104.544 33.9333 104.784 34.008C105.024 34.0773 105.267 34.1547 105.512 34.24C105.763 34.3253 106.008 34.424 106.248 34.536C106.488 34.6427 106.701 34.7813 106.888 34.952C107.08 35.1173 107.232 35.3173 107.344 35.552C107.461 35.7867 107.52 36.0693 107.52 36.4C107.52 36.7947 107.448 37.16 107.304 37.496C107.165 37.8267 106.957 38.1147 106.68 38.36C106.403 38.6 106.059 38.7893 105.648 38.928C105.243 39.0613 104.773 39.128 104.24 39.128C103.957 39.128 103.68 39.1013 103.408 39.048C103.141 39 102.883 38.9307 102.632 38.84C102.387 38.7493 102.157 38.6427 101.944 38.52C101.736 38.3973 101.552 38.264 101.392 38.12L101.848 37.368C101.907 37.2773 101.976 37.208 102.056 37.16C102.136 37.112 102.237 37.088 102.36 37.088C102.483 37.088 102.597 37.1227 102.704 37.192C102.816 37.2613 102.944 37.336 103.088 37.416C103.232 37.496 103.4 37.5707 103.592 37.64C103.789 37.7093 104.037 37.744 104.336 37.744C104.571 37.744 104.771 37.7173 104.936 37.664C105.107 37.6053 105.245 37.5307 105.352 37.44C105.464 37.3493 105.544 37.2453 105.592 37.128C105.645 37.0053 105.672 36.88 105.672 36.752C105.672 36.56 105.613 36.4027 105.496 36.28C105.384 36.1573 105.232 36.0507 105.04 35.96C104.853 35.8693 104.637 35.7893 104.392 35.72C104.152 35.6453 103.904 35.5653 103.648 35.48C103.397 35.3947 103.149 35.296 102.904 35.184C102.664 35.0667 102.448 34.92 102.256 34.744C102.069 34.568 101.917 34.352 101.8 34.096C101.688 33.84 101.632 33.5307 101.632 33.168C101.632 32.832 101.699 32.512 101.832 32.208C101.965 31.904 102.16 31.64 102.416 31.416C102.677 31.1867 103 31.0053 103.384 30.872C103.773 30.7333 104.221 30.664 104.728 30.664C105.293 30.664 105.808 30.7573 106.272 30.944C106.736 31.1307 107.123 31.376 107.432 31.68L106.984 32.392ZM113.343 35.496C112.773 35.5227 112.293 35.5733 111.903 35.648C111.514 35.7173 111.202 35.808 110.967 35.92C110.733 36.032 110.565 36.1627 110.463 36.312C110.362 36.4613 110.311 36.624 110.311 36.8C110.311 37.1467 110.413 37.3947 110.615 37.544C110.823 37.6933 111.093 37.768 111.423 37.768C111.829 37.768 112.178 37.696 112.471 37.552C112.77 37.4027 113.061 37.1787 113.343 36.88V35.496ZM108.815 31.936C109.759 31.072 110.895 30.64 112.223 30.64C112.703 30.64 113.133 30.72 113.511 30.88C113.89 31.0347 114.21 31.2533 114.471 31.536C114.733 31.8133 114.93 32.1467 115.063 32.536C115.202 32.9253 115.271 33.352 115.271 33.816V39H114.375C114.189 39 114.045 38.9733 113.943 38.92C113.842 38.8613 113.762 38.7467 113.703 38.576L113.527 37.984C113.319 38.1707 113.117 38.336 112.919 38.48C112.722 38.6187 112.517 38.736 112.303 38.832C112.09 38.928 111.861 39 111.615 39.048C111.375 39.1013 111.109 39.128 110.815 39.128C110.469 39.128 110.149 39.0827 109.855 38.992C109.562 38.896 109.309 38.7547 109.095 38.568C108.882 38.3813 108.717 38.1493 108.599 37.872C108.482 37.5947 108.423 37.272 108.423 36.904C108.423 36.696 108.458 36.4907 108.527 36.288C108.597 36.08 108.709 35.8827 108.863 35.696C109.023 35.5093 109.229 35.3333 109.479 35.168C109.73 35.0027 110.037 34.8587 110.399 34.736C110.767 34.6133 111.194 34.5147 111.679 34.44C112.165 34.36 112.719 34.312 113.343 34.296V33.816C113.343 33.2667 113.226 32.8613 112.991 32.6C112.757 32.3333 112.418 32.2 111.975 32.2C111.655 32.2 111.389 32.2373 111.175 32.312C110.967 32.3867 110.783 32.472 110.623 32.568C110.463 32.6587 110.317 32.7413 110.183 32.816C110.055 32.8907 109.911 32.928 109.751 32.928C109.613 32.928 109.495 32.8933 109.399 32.824C109.303 32.7493 109.226 32.664 109.167 32.568L108.815 31.936ZM123.012 32.528C122.954 32.6027 122.895 32.6613 122.836 32.704C122.783 32.7467 122.703 32.768 122.596 32.768C122.495 32.768 122.396 32.7387 122.3 32.68C122.204 32.616 122.09 32.5467 121.956 32.472C121.823 32.392 121.663 32.3227 121.476 32.264C121.295 32.2 121.068 32.168 120.796 32.168C120.45 32.168 120.146 32.232 119.884 32.36C119.623 32.4827 119.404 32.6613 119.228 32.896C119.058 33.1307 118.93 33.416 118.844 33.752C118.759 34.0827 118.716 34.4587 118.716 34.88C118.716 35.3173 118.762 35.7067 118.852 36.048C118.948 36.3893 119.084 36.6773 119.26 36.912C119.436 37.1413 119.65 37.3173 119.9 37.44C120.151 37.5573 120.434 37.616 120.748 37.616C121.063 37.616 121.316 37.5787 121.508 37.504C121.706 37.424 121.871 37.3387 122.004 37.248C122.138 37.152 122.252 37.0667 122.348 36.992C122.45 36.912 122.562 36.872 122.684 36.872C122.844 36.872 122.964 36.9333 123.044 37.056L123.612 37.776C123.394 38.032 123.156 38.248 122.9 38.424C122.644 38.5947 122.378 38.7333 122.1 38.84C121.828 38.9413 121.546 39.0133 121.252 39.056C120.964 39.0987 120.676 39.12 120.388 39.12C119.882 39.12 119.404 39.0267 118.956 38.84C118.508 38.648 118.116 38.3707 117.78 38.008C117.444 37.6453 117.178 37.2027 116.98 36.68C116.788 36.152 116.692 35.552 116.692 34.88C116.692 34.2773 116.778 33.72 116.948 33.208C117.124 32.6907 117.38 32.2453 117.716 31.872C118.052 31.4933 118.468 31.1973 118.964 30.984C119.46 30.7707 120.031 30.664 120.676 30.664C121.29 30.664 121.826 30.7627 122.284 30.96C122.748 31.1573 123.164 31.44 123.532 31.808L123.012 32.528ZM133.131 39H131.155V32.272H127.347V36.72C127.347 36.976 127.408 37.176 127.531 37.32C127.659 37.464 127.832 37.536 128.051 37.536C128.174 37.536 128.275 37.5227 128.355 37.496C128.44 37.464 128.512 37.432 128.571 37.4C128.635 37.368 128.691 37.3387 128.739 37.312C128.787 37.28 128.835 37.264 128.883 37.264C128.942 37.264 128.99 37.28 129.027 37.312C129.064 37.3387 129.104 37.3813 129.147 37.44L129.739 38.4C129.451 38.64 129.12 38.8213 128.747 38.944C128.374 39.0667 127.987 39.128 127.587 39.128C126.872 39.128 126.323 38.928 125.939 38.528C125.56 38.1227 125.371 37.5653 125.371 36.856V32.272H124.531C124.424 32.272 124.334 32.2373 124.259 32.168C124.184 32.0987 124.147 31.9947 124.147 31.856V31.072L125.467 30.848L125.883 28.616C125.91 28.5093 125.96 28.4267 126.035 28.368C126.11 28.3093 126.206 28.28 126.323 28.28H127.347V30.864H133.131V39ZM133.475 28.368C133.475 28.5387 133.44 28.7013 133.371 28.856C133.302 29.0053 133.208 29.136 133.091 29.248C132.979 29.36 132.843 29.4507 132.683 29.52C132.528 29.584 132.363 29.616 132.187 29.616C132.016 29.616 131.856 29.584 131.707 29.52C131.558 29.4507 131.427 29.36 131.315 29.248C131.203 29.136 131.112 29.0053 131.043 28.856C130.979 28.7013 130.947 28.5387 130.947 28.368C130.947 28.192 130.979 28.0293 131.043 27.88C131.112 27.7253 131.203 27.592 131.315 27.48C131.427 27.3627 131.558 27.272 131.707 27.208C131.856 27.1387 132.016 27.104 132.187 27.104C132.363 27.104 132.528 27.1387 132.683 27.208C132.843 27.272 132.979 27.3627 133.091 27.48C133.208 27.592 133.302 27.7253 133.371 27.88C133.44 28.0293 133.475 28.192 133.475 28.368ZM138.78 30.664C139.388 30.664 139.94 30.7627 140.436 30.96C140.937 31.1573 141.364 31.4373 141.716 31.8C142.073 32.1627 142.348 32.6053 142.54 33.128C142.732 33.6507 142.828 34.2347 142.828 34.88C142.828 35.5307 142.732 36.1173 142.54 36.64C142.348 37.1627 142.073 37.608 141.716 37.976C141.364 38.344 140.937 38.6267 140.436 38.824C139.94 39.0213 139.388 39.12 138.78 39.12C138.167 39.12 137.609 39.0213 137.108 38.824C136.607 38.6267 136.177 38.344 135.82 37.976C135.468 37.608 135.193 37.1627 134.996 36.64C134.804 36.1173 134.708 35.5307 134.708 34.88C134.708 34.2347 134.804 33.6507 134.996 33.128C135.193 32.6053 135.468 32.1627 135.82 31.8C136.177 31.4373 136.607 31.1573 137.108 30.96C137.609 30.7627 138.167 30.664 138.78 30.664ZM138.78 37.6C139.463 37.6 139.967 37.3707 140.292 36.912C140.623 36.4533 140.788 35.7813 140.788 34.896C140.788 34.0107 140.623 33.336 140.292 32.872C139.967 32.408 139.463 32.176 138.78 32.176C138.087 32.176 137.572 32.4107 137.236 32.88C136.905 33.344 136.74 34.016 136.74 34.896C136.74 35.776 136.905 36.448 137.236 36.912C137.572 37.3707 138.087 37.6 138.78 37.6ZM146.183 31.8C146.349 31.6347 146.522 31.4827 146.703 31.344C146.89 31.2 147.085 31.08 147.287 30.984C147.495 30.8827 147.717 30.8053 147.951 30.752C148.186 30.6933 148.442 30.664 148.719 30.664C149.167 30.664 149.565 30.7413 149.911 30.896C150.258 31.0453 150.546 31.2587 150.775 31.536C151.01 31.808 151.186 32.136 151.303 32.52C151.426 32.8987 151.487 33.3173 151.487 33.776V39H149.511V33.776C149.511 33.2747 149.397 32.888 149.167 32.616C148.938 32.3387 148.589 32.2 148.119 32.2C147.778 32.2 147.458 32.2773 147.159 32.432C146.861 32.5867 146.578 32.7973 146.311 33.064V39H144.335V30.792H145.543C145.799 30.792 145.967 30.912 146.047 31.152L146.183 31.8ZM162.265 32.392C162.212 32.4773 162.156 32.5387 162.097 32.576C162.039 32.608 161.964 32.624 161.873 32.624C161.777 32.624 161.673 32.5973 161.561 32.544C161.455 32.4907 161.329 32.432 161.185 32.368C161.041 32.2987 160.876 32.2373 160.689 32.184C160.508 32.1307 160.292 32.104 160.041 32.104C159.652 32.104 159.345 32.1867 159.121 32.352C158.903 32.5173 158.793 32.7333 158.793 33C158.793 33.176 158.849 33.3253 158.961 33.448C159.079 33.5653 159.231 33.6693 159.417 33.76C159.609 33.8507 159.825 33.9333 160.065 34.008C160.305 34.0773 160.548 34.1547 160.793 34.24C161.044 34.3253 161.289 34.424 161.529 34.536C161.769 34.6427 161.983 34.7813 162.169 34.952C162.361 35.1173 162.513 35.3173 162.625 35.552C162.743 35.7867 162.801 36.0693 162.801 36.4C162.801 36.7947 162.729 37.16 162.585 37.496C162.447 37.8267 162.239 38.1147 161.961 38.36C161.684 38.6 161.34 38.7893 160.929 38.928C160.524 39.0613 160.055 39.128 159.521 39.128C159.239 39.128 158.961 39.1013 158.689 39.048C158.423 39 158.164 38.9307 157.913 38.84C157.668 38.7493 157.439 38.6427 157.225 38.52C157.017 38.3973 156.833 38.264 156.673 38.12L157.129 37.368C157.188 37.2773 157.257 37.208 157.337 37.16C157.417 37.112 157.519 37.088 157.641 37.088C157.764 37.088 157.879 37.1227 157.985 37.192C158.097 37.2613 158.225 37.336 158.369 37.416C158.513 37.496 158.681 37.5707 158.873 37.64C159.071 37.7093 159.319 37.744 159.617 37.744C159.852 37.744 160.052 37.7173 160.217 37.664C160.388 37.6053 160.527 37.5307 160.633 37.44C160.745 37.3493 160.825 37.2453 160.873 37.128C160.927 37.0053 160.953 36.88 160.953 36.752C160.953 36.56 160.895 36.4027 160.777 36.28C160.665 36.1573 160.513 36.0507 160.321 35.96C160.135 35.8693 159.919 35.7893 159.673 35.72C159.433 35.6453 159.185 35.5653 158.929 35.48C158.679 35.3947 158.431 35.296 158.185 35.184C157.945 35.0667 157.729 34.92 157.537 34.744C157.351 34.568 157.199 34.352 157.081 34.096C156.969 33.84 156.913 33.5307 156.913 33.168C156.913 32.832 156.98 32.512 157.113 32.208C157.247 31.904 157.441 31.64 157.697 31.416C157.959 31.1867 158.281 31.0053 158.665 30.872C159.055 30.7333 159.503 30.664 160.009 30.664C160.575 30.664 161.089 30.7573 161.553 30.944C162.017 31.1307 162.404 31.376 162.713 31.68L162.265 32.392ZM171.361 30.792V39H170.153C169.891 39 169.726 38.88 169.657 38.64L169.521 37.984C169.185 38.3253 168.814 38.6027 168.409 38.816C168.003 39.024 167.526 39.128 166.977 39.128C166.529 39.128 166.131 39.0533 165.785 38.904C165.443 38.7493 165.155 38.5333 164.921 38.256C164.686 37.9787 164.507 37.6507 164.385 37.272C164.267 36.888 164.209 36.4667 164.209 36.008V30.792H166.185V36.008C166.185 36.5093 166.299 36.8987 166.529 37.176C166.763 37.448 167.113 37.584 167.577 37.584C167.918 37.584 168.238 37.5093 168.537 37.36C168.835 37.2053 169.118 36.9947 169.385 36.728V30.792H171.361ZM173.32 39V30.792H174.528C174.784 30.792 174.952 30.912 175.032 31.152L175.16 31.76C175.304 31.6 175.453 31.4533 175.608 31.32C175.768 31.1867 175.936 31.072 176.112 30.976C176.293 30.88 176.485 30.8053 176.688 30.752C176.896 30.6933 177.122 30.664 177.368 30.664C177.885 30.664 178.309 30.8053 178.64 31.088C178.976 31.3653 179.226 31.736 179.392 32.2C179.52 31.928 179.68 31.696 179.872 31.504C180.064 31.3067 180.274 31.1467 180.504 31.024C180.733 30.9013 180.976 30.8107 181.232 30.752C181.493 30.6933 181.754 30.664 182.016 30.664C182.469 30.664 182.872 30.7333 183.224 30.872C183.576 31.0107 183.872 31.2133 184.112 31.48C184.352 31.7467 184.533 32.072 184.656 32.456C184.784 32.84 184.848 33.28 184.848 33.776V39H182.872V33.776C182.872 33.2533 182.757 32.8613 182.528 32.6C182.298 32.3333 181.962 32.2 181.52 32.2C181.317 32.2 181.128 32.2347 180.952 32.304C180.781 32.3733 180.629 32.4747 180.496 32.608C180.368 32.736 180.266 32.8987 180.192 33.096C180.117 33.2933 180.08 33.52 180.08 33.776V39H178.096V33.776C178.096 33.2267 177.984 32.8267 177.76 32.576C177.541 32.3253 177.218 32.2 176.792 32.2C176.504 32.2 176.234 32.272 175.984 32.416C175.738 32.5547 175.509 32.7467 175.296 32.992V39H173.32ZM186.726 39V30.792H187.934C188.19 30.792 188.358 30.912 188.438 31.152L188.566 31.76C188.71 31.6 188.859 31.4533 189.014 31.32C189.174 31.1867 189.342 31.072 189.518 30.976C189.699 30.88 189.891 30.8053 190.094 30.752C190.302 30.6933 190.529 30.664 190.774 30.664C191.291 30.664 191.715 30.8053 192.046 31.088C192.382 31.3653 192.633 31.736 192.798 32.2C192.926 31.928 193.086 31.696 193.278 31.504C193.47 31.3067 193.681 31.1467 193.91 31.024C194.139 30.9013 194.382 30.8107 194.638 30.752C194.899 30.6933 195.161 30.664 195.422 30.664C195.875 30.664 196.278 30.7333 196.63 30.872C196.982 31.0107 197.278 31.2133 197.518 31.48C197.758 31.7467 197.939 32.072 198.062 32.456C198.19 32.84 198.254 33.28 198.254 33.776V39H196.278V33.776C196.278 33.2533 196.163 32.8613 195.934 32.6C195.705 32.3333 195.369 32.2 194.926 32.2C194.723 32.2 194.534 32.2347 194.358 32.304C194.187 32.3733 194.035 32.4747 193.902 32.608C193.774 32.736 193.673 32.8987 193.598 33.096C193.523 33.2933 193.486 33.52 193.486 33.776V39H191.502V33.776C191.502 33.2267 191.39 32.8267 191.166 32.576C190.947 32.3253 190.625 32.2 190.198 32.2C189.91 32.2 189.641 32.272 189.39 32.416C189.145 32.5547 188.915 32.7467 188.702 32.992V39H186.726ZM204.468 35.496C203.898 35.5227 203.418 35.5733 203.028 35.648C202.639 35.7173 202.327 35.808 202.092 35.92C201.858 36.032 201.69 36.1627 201.588 36.312C201.487 36.4613 201.436 36.624 201.436 36.8C201.436 37.1467 201.538 37.3947 201.74 37.544C201.948 37.6933 202.218 37.768 202.548 37.768C202.954 37.768 203.303 37.696 203.596 37.552C203.895 37.4027 204.186 37.1787 204.468 36.88V35.496ZM199.94 31.936C200.884 31.072 202.02 30.64 203.348 30.64C203.828 30.64 204.258 30.72 204.636 30.88C205.015 31.0347 205.335 31.2533 205.596 31.536C205.858 31.8133 206.055 32.1467 206.188 32.536C206.327 32.9253 206.396 33.352 206.396 33.816V39H205.5C205.314 39 205.17 38.9733 205.068 38.92C204.967 38.8613 204.887 38.7467 204.828 38.576L204.652 37.984C204.444 38.1707 204.242 38.336 204.044 38.48C203.847 38.6187 203.642 38.736 203.428 38.832C203.215 38.928 202.986 39 202.74 39.048C202.5 39.1013 202.234 39.128 201.94 39.128C201.594 39.128 201.274 39.0827 200.98 38.992C200.687 38.896 200.434 38.7547 200.22 38.568C200.007 38.3813 199.842 38.1493 199.724 37.872C199.607 37.5947 199.548 37.272 199.548 36.904C199.548 36.696 199.583 36.4907 199.652 36.288C199.722 36.08 199.834 35.8827 199.988 35.696C200.148 35.5093 200.354 35.3333 200.604 35.168C200.855 35.0027 201.162 34.8587 201.524 34.736C201.892 34.6133 202.319 34.5147 202.804 34.44C203.29 34.36 203.844 34.312 204.468 34.296V33.816C204.468 33.2667 204.351 32.8613 204.116 32.6C203.882 32.3333 203.543 32.2 203.1 32.2C202.78 32.2 202.514 32.2373 202.3 32.312C202.092 32.3867 201.908 32.472 201.748 32.568C201.588 32.6587 201.442 32.7413 201.308 32.816C201.18 32.8907 201.036 32.928 200.876 32.928C200.738 32.928 200.62 32.8933 200.524 32.824C200.428 32.7493 200.351 32.664 200.292 32.568L199.94 31.936ZM210.121 32.216C210.377 31.7253 210.681 31.3413 211.033 31.064C211.385 30.7813 211.801 30.64 212.281 30.64C212.66 30.64 212.964 30.7227 213.193 30.888L213.065 32.368C213.039 32.464 212.999 32.5333 212.945 32.576C212.897 32.6133 212.831 32.632 212.745 32.632C212.665 32.632 212.545 32.6187 212.385 32.592C212.231 32.5653 212.079 32.552 211.929 32.552C211.711 32.552 211.516 32.584 211.345 32.648C211.175 32.712 211.02 32.8053 210.881 32.928C210.748 33.0453 210.628 33.1893 210.521 33.36C210.42 33.5307 210.324 33.7253 210.233 33.944V39H208.257V30.792H209.417C209.62 30.792 209.761 30.8293 209.841 30.904C209.921 30.9733 209.975 31.1013 210.001 31.288L210.121 32.216ZM221.682 30.792L217.21 41.256C217.151 41.3947 217.074 41.4987 216.978 41.568C216.887 41.6427 216.746 41.68 216.554 41.68H215.082L216.618 38.384L213.298 30.792H215.034C215.189 30.792 215.309 30.8293 215.394 30.904C215.485 30.9787 215.551 31.064 215.594 31.16L217.338 35.416C217.397 35.56 217.445 35.704 217.482 35.848C217.525 35.992 217.565 36.1387 217.602 36.288C217.65 36.1387 217.698 35.992 217.746 35.848C217.794 35.6987 217.847 35.552 217.906 35.408L219.554 31.16C219.597 31.0533 219.666 30.9653 219.762 30.896C219.863 30.8267 219.975 30.792 220.098 30.792H221.682Z" fill="#161A41" fill-opacity="0.78"/>
<line x1="105" y1="61.5" x2="555" y2="61.5" stroke="black" stroke-opacity="0.02"/>
<line x1="104" y1="79.5" x2="554" y2="79.5" stroke="black" stroke-opacity="0.02"/>
<line x1="103" y1="97.5" x2="553" y2="97.5" stroke="black" stroke-opacity="0.02"/>
<line x1="102" y1="115.5" x2="552" y2="115.5" stroke="black" stroke-opacity="0.02"/>
<line x1="101" y1="133.5" x2="551" y2="133.5" stroke="black" stroke-opacity="0.02"/>
<line x1="100" y1="151.5" x2="550" y2="151.5" stroke="black" stroke-opacity="0.02"/>
<line x1="99" y1="169.5" x2="549" y2="169.5" stroke="black" stroke-opacity="0.02"/>
<line x1="98" y1="187.5" x2="548" y2="187.5" stroke="black" stroke-opacity="0.02"/>
<line x1="97" y1="205.5" x2="547" y2="205.5" stroke="black" stroke-opacity="0.02"/>
<line x1="96" y1="223.5" x2="546" y2="223.5" stroke="black" stroke-opacity="0.02"/>
<line x1="95" y1="241.5" x2="545" y2="241.5" stroke="black" stroke-opacity="0.02"/>
<line x1="94" y1="259.5" x2="544" y2="259.5" stroke="black" stroke-opacity="0.02"/>
<line x1="93" y1="277.5" x2="543" y2="277.5" stroke="black" stroke-opacity="0.02"/>
<line x1="92" y1="295.5" x2="542" y2="295.5" stroke="black" stroke-opacity="0.02"/>
<rect x="125" y="80" width="36" height="204" rx="6" fill="#F8F7FC"/>
<rect x="185" y="80" width="36" height="204" rx="6" fill="#F8F7FC"/>
<rect x="245" y="80" width="36" height="204" rx="6" fill="#F8F7FC"/>
<rect x="305" y="80" width="36" height="204" rx="6" fill="#F8F7FC"/>
<rect x="365" y="80" width="36" height="204" rx="6" fill="#F8F7FC"/>
<rect x="425" y="80" width="36" height="204" rx="6" fill="#F8F7FC"/>
<rect x="485" y="80" width="36" height="204" rx="6" fill="#F8F7FC"/>
<rect x="125" y="142" width="36" height="142" rx="6" fill="#0027B4"/>
<rect x="185" y="116" width="36" height="168" rx="6" fill="#0027B4"/>
<rect x="245" y="206" width="36" height="78" rx="6" fill="#0027B4"/>
<rect x="305" y="225" width="36" height="59" rx="6" fill="#0027B4"/>
<g filter="url(#filter1_d_4288_5410)">
<rect x="365" y="107" width="36" height="177" rx="6" fill="#FF6F3C"/>
</g>
<rect x="425" y="190" width="36" height="94" rx="6" fill="#0027B4"/>
<rect x="485" y="162" width="36" height="122" rx="6" fill="#0027B4"/>
<g filter="url(#filter2_d_4288_5410)">
<rect x="386" y="90" width="73" height="36" rx="6" fill="white"/>
</g>
<circle cx="384" cy="107" r="7.5" fill="#7453EC" stroke="white" stroke-width="5"/>
<path d="M407.802 111.705V113H402.202V111.705H404.253V105.804C404.253 105.571 404.26 105.33 404.274 105.083L402.818 106.301C402.734 106.366 402.65 106.408 402.566 106.427C402.486 106.441 402.409 106.441 402.335 106.427C402.265 106.413 402.202 106.39 402.146 106.357C402.09 106.32 402.048 106.28 402.02 106.238L401.474 105.489L404.561 102.864H405.982V111.705H407.802ZM415.545 111.39C415.731 111.39 415.878 111.444 415.986 111.551C416.098 111.654 416.154 111.791 416.154 111.964V113H409.21V112.426C409.21 112.309 409.233 112.188 409.28 112.062C409.331 111.931 409.41 111.815 409.518 111.712L412.591 108.632C412.847 108.371 413.076 108.121 413.277 107.883C413.482 107.645 413.652 107.409 413.788 107.176C413.923 106.943 414.026 106.707 414.096 106.469C414.17 106.226 414.208 105.972 414.208 105.706C414.208 105.463 414.173 105.251 414.103 105.069C414.033 104.882 413.932 104.726 413.802 104.6C413.676 104.474 413.522 104.381 413.34 104.32C413.162 104.255 412.962 104.222 412.738 104.222C412.532 104.222 412.341 104.252 412.164 104.313C411.991 104.369 411.837 104.451 411.702 104.558C411.566 104.661 411.452 104.782 411.359 104.922C411.265 105.062 411.195 105.216 411.149 105.384C411.069 105.599 410.967 105.741 410.841 105.811C410.715 105.881 410.533 105.897 410.295 105.86L409.385 105.699C409.455 105.214 409.59 104.789 409.791 104.425C409.991 104.056 410.241 103.751 410.54 103.508C410.843 103.261 411.188 103.076 411.576 102.955C411.968 102.829 412.388 102.766 412.836 102.766C413.302 102.766 413.729 102.836 414.117 102.976C414.504 103.111 414.835 103.305 415.111 103.557C415.386 103.809 415.601 104.112 415.755 104.467C415.909 104.822 415.986 105.216 415.986 105.65C415.986 106.023 415.93 106.369 415.818 106.686C415.71 107.003 415.563 107.307 415.377 107.596C415.195 107.885 414.98 108.165 414.733 108.436C414.485 108.707 414.226 108.982 413.956 109.262L411.674 111.593C411.893 111.528 412.11 111.479 412.325 111.446C412.544 111.409 412.752 111.39 412.948 111.39H415.545ZM417.625 114.715C417.541 114.645 417.499 114.559 417.499 114.456C417.499 114.419 417.51 114.377 417.534 114.33C417.562 114.283 417.594 114.241 417.632 114.204C417.683 114.148 417.746 114.078 417.821 113.994C417.895 113.915 417.97 113.821 418.045 113.714C418.119 113.611 418.187 113.497 418.248 113.371C418.313 113.25 418.362 113.119 418.395 112.979C418.245 112.979 418.11 112.953 417.989 112.902C417.867 112.846 417.762 112.771 417.674 112.678C417.59 112.585 417.522 112.475 417.471 112.349C417.424 112.223 417.401 112.085 417.401 111.936C417.401 111.805 417.424 111.684 417.471 111.572C417.522 111.455 417.592 111.355 417.681 111.271C417.769 111.182 417.877 111.115 418.003 111.068C418.129 111.017 418.266 110.991 418.416 110.991C418.593 110.991 418.747 111.024 418.878 111.089C419.013 111.15 419.123 111.236 419.207 111.348C419.295 111.455 419.361 111.581 419.403 111.726C419.449 111.866 419.473 112.015 419.473 112.174C419.473 112.398 419.438 112.634 419.368 112.881C419.302 113.128 419.204 113.376 419.074 113.623C418.943 113.87 418.78 114.111 418.584 114.344C418.392 114.577 418.173 114.792 417.926 114.988L417.625 114.715ZM427.85 107.939C427.85 108.821 427.754 109.589 427.563 110.242C427.376 110.891 427.115 111.427 426.779 111.852C426.448 112.277 426.053 112.594 425.596 112.804C425.143 113.009 424.653 113.112 424.126 113.112C423.599 113.112 423.109 113.009 422.656 112.804C422.208 112.594 421.818 112.277 421.487 111.852C421.156 111.427 420.897 110.891 420.71 110.242C420.523 109.589 420.43 108.821 420.43 107.939C420.43 107.052 420.523 106.285 420.71 105.636C420.897 104.987 421.156 104.451 421.487 104.026C421.818 103.601 422.208 103.286 422.656 103.081C423.109 102.871 423.599 102.766 424.126 102.766C424.653 102.766 425.143 102.871 425.596 103.081C426.053 103.286 426.448 103.601 426.779 104.026C427.115 104.451 427.376 104.987 427.563 105.636C427.754 106.285 427.85 107.052 427.85 107.939ZM426.065 107.939C426.065 107.206 426.011 106.6 425.904 106.119C425.797 105.638 425.652 105.256 425.47 104.971C425.293 104.686 425.087 104.488 424.854 104.376C424.621 104.259 424.378 104.201 424.126 104.201C423.879 104.201 423.638 104.259 423.405 104.376C423.176 104.488 422.973 104.686 422.796 104.971C422.619 105.256 422.476 105.638 422.369 106.119C422.266 106.6 422.215 107.206 422.215 107.939C422.215 108.672 422.266 109.278 422.369 109.759C422.476 110.24 422.619 110.622 422.796 110.907C422.973 111.192 423.176 111.392 423.405 111.509C423.638 111.621 423.879 111.677 424.126 111.677C424.378 111.677 424.621 111.621 424.854 111.509C425.087 111.392 425.293 111.192 425.47 110.907C425.652 110.622 425.797 110.24 425.904 109.759C426.011 109.278 426.065 108.672 426.065 107.939ZM435.971 107.939C435.971 108.821 435.876 109.589 435.684 110.242C435.498 110.891 435.236 111.427 434.9 111.852C434.569 112.277 434.175 112.594 433.717 112.804C433.265 113.009 432.775 113.112 432.247 113.112C431.72 113.112 431.23 113.009 430.777 112.804C430.329 112.594 429.94 112.277 429.608 111.852C429.277 111.427 429.018 110.891 428.831 110.242C428.645 109.589 428.551 108.821 428.551 107.939C428.551 107.052 428.645 106.285 428.831 105.636C429.018 104.987 429.277 104.451 429.608 104.026C429.94 103.601 430.329 103.286 430.777 103.081C431.23 102.871 431.72 102.766 432.247 102.766C432.775 102.766 433.265 102.871 433.717 103.081C434.175 103.286 434.569 103.601 434.9 104.026C435.236 104.451 435.498 104.987 435.684 105.636C435.876 106.285 435.971 107.052 435.971 107.939ZM434.186 107.939C434.186 107.206 434.133 106.6 434.025 106.119C433.918 105.638 433.773 105.256 433.591 104.971C433.414 104.686 433.209 104.488 432.975 104.376C432.742 104.259 432.499 104.201 432.247 104.201C432 104.201 431.76 104.259 431.526 104.376C431.298 104.488 431.095 104.686 430.917 104.971C430.74 105.256 430.598 105.638 430.49 106.119C430.388 106.6 430.336 107.206 430.336 107.939C430.336 108.672 430.388 109.278 430.49 109.759C430.598 110.24 430.74 110.622 430.917 110.907C431.095 111.192 431.298 111.392 431.526 111.509C431.76 111.621 432 111.677 432.247 111.677C432.499 111.677 432.742 111.621 432.975 111.509C433.209 111.392 433.414 111.192 433.591 110.907C433.773 110.622 433.918 110.24 434.025 109.759C434.133 109.278 434.186 108.672 434.186 107.939ZM444.092 107.939C444.092 108.821 443.997 109.589 443.805 110.242C443.619 110.891 443.357 111.427 443.021 111.852C442.69 112.277 442.296 112.594 441.838 112.804C441.386 113.009 440.896 113.112 440.368 113.112C439.841 113.112 439.351 113.009 438.898 112.804C438.45 112.594 438.061 112.277 437.729 111.852C437.398 111.427 437.139 110.891 436.952 110.242C436.766 109.589 436.672 108.821 436.672 107.939C436.672 107.052 436.766 106.285 436.952 105.636C437.139 104.987 437.398 104.451 437.729 104.026C438.061 103.601 438.45 103.286 438.898 103.081C439.351 102.871 439.841 102.766 440.368 102.766C440.896 102.766 441.386 102.871 441.838 103.081C442.296 103.286 442.69 103.601 443.021 104.026C443.357 104.451 443.619 104.987 443.805 105.636C443.997 106.285 444.092 107.052 444.092 107.939ZM442.307 107.939C442.307 107.206 442.254 106.6 442.146 106.119C442.039 105.638 441.894 105.256 441.712 104.971C441.535 104.686 441.33 104.488 441.096 104.376C440.863 104.259 440.62 104.201 440.368 104.201C440.121 104.201 439.881 104.259 439.647 104.376C439.419 104.488 439.216 104.686 439.038 104.971C438.861 105.256 438.719 105.638 438.611 106.119C438.509 106.6 438.457 107.206 438.457 107.939C438.457 108.672 438.509 109.278 438.611 109.759C438.719 110.24 438.861 110.622 439.038 110.907C439.216 111.192 439.419 111.392 439.647 111.509C439.881 111.621 440.121 111.677 440.368 111.677C440.62 111.677 440.863 111.621 441.096 111.509C441.33 111.392 441.535 111.192 441.712 110.907C441.894 110.622 442.039 110.24 442.146 109.759C442.254 109.278 442.307 108.672 442.307 107.939Z" fill="#3B3D53" fill-opacity="0.56"/>
<path d="M84.6391 288.704C84.6391 289.456 84.5571 290.108 84.3931 290.66C84.2331 291.208 84.0131 291.662 83.7331 292.022C83.4531 292.382 83.1211 292.65 82.7371 292.826C82.3571 293.002 81.9491 293.09 81.5131 293.09C81.0731 293.09 80.6631 293.002 80.2831 292.826C79.9071 292.65 79.5791 292.382 79.2991 292.022C79.0191 291.662 78.7991 291.208 78.6391 290.66C78.4791 290.108 78.3991 289.456 78.3991 288.704C78.3991 287.952 78.4791 287.3 78.6391 286.748C78.7991 286.196 79.0191 285.74 79.2991 285.38C79.5791 285.016 79.9071 284.746 80.2831 284.57C80.6631 284.394 81.0731 284.306 81.5131 284.306C81.9491 284.306 82.3571 284.394 82.7371 284.57C83.1211 284.746 83.4531 285.016 83.7331 285.38C84.0131 285.74 84.2331 286.196 84.3931 286.748C84.5571 287.3 84.6391 287.952 84.6391 288.704ZM83.5291 288.704C83.5291 288.048 83.4731 287.498 83.3611 287.054C83.2531 286.606 83.1051 286.246 82.9171 285.974C82.7331 285.702 82.5191 285.508 82.2751 285.392C82.0311 285.272 81.7771 285.212 81.5131 285.212C81.2491 285.212 80.9951 285.272 80.7511 285.392C80.5071 285.508 80.2931 285.702 80.1091 285.974C79.9251 286.246 79.7771 286.606 79.6651 287.054C79.5571 287.498 79.5031 288.048 79.5031 288.704C79.5031 289.36 79.5571 289.91 79.6651 290.354C79.7771 290.798 79.9251 291.156 80.1091 291.428C80.2931 291.7 80.5071 291.896 80.7511 292.016C80.9951 292.132 81.2491 292.19 81.5131 292.19C81.7771 292.19 82.0311 292.132 82.2751 292.016C82.5191 291.896 82.7331 291.7 82.9171 291.428C83.1051 291.156 83.2531 290.798 83.3611 290.354C83.4731 289.91 83.5291 289.36 83.5291 288.704Z" fill="#161A41" fill-opacity="0.33"/>
<path d="M70.2252 264.184V265H65.6172V264.184H67.4592V258.322C67.4592 258.146 67.4652 257.968 67.4772 257.788L65.9472 259.102C65.8952 259.146 65.8432 259.174 65.7912 259.186C65.7392 259.194 65.6912 259.194 65.6472 259.186C65.6032 259.178 65.5612 259.162 65.5212 259.138C65.4852 259.114 65.4572 259.088 65.4372 259.06L65.1012 258.598L67.6632 256.384H68.5332V264.184H70.2252ZM77.6781 260.704C77.6781 261.456 77.5961 262.108 77.4321 262.66C77.2721 263.208 77.0521 263.662 76.7721 264.022C76.4921 264.382 76.1601 264.65 75.7761 264.826C75.3961 265.002 74.9881 265.09 74.5521 265.09C74.1121 265.09 73.7021 265.002 73.3221 264.826C72.9461 264.65 72.6181 264.382 72.3381 264.022C72.0581 263.662 71.8381 263.208 71.6781 262.66C71.5181 262.108 71.4381 261.456 71.4381 260.704C71.4381 259.952 71.5181 259.3 71.6781 258.748C71.8381 258.196 72.0581 257.74 72.3381 257.38C72.6181 257.016 72.9461 256.746 73.3221 256.57C73.7021 256.394 74.1121 256.306 74.5521 256.306C74.9881 256.306 75.3961 256.394 75.7761 256.57C76.1601 256.746 76.4921 257.016 76.7721 257.38C77.0521 257.74 77.2721 258.196 77.4321 258.748C77.5961 259.3 77.6781 259.952 77.6781 260.704ZM76.5681 260.704C76.5681 260.048 76.5121 259.498 76.4001 259.054C76.2921 258.606 76.1441 258.246 75.9561 257.974C75.7721 257.702 75.5581 257.508 75.3141 257.392C75.0701 257.272 74.8161 257.212 74.5521 257.212C74.2881 257.212 74.0341 257.272 73.7901 257.392C73.5461 257.508 73.3321 257.702 73.1481 257.974C72.9641 258.246 72.8161 258.606 72.7041 259.054C72.5961 259.498 72.5421 260.048 72.5421 260.704C72.5421 261.36 72.5961 261.91 72.7041 262.354C72.8161 262.798 72.9641 263.156 73.1481 263.428C73.3321 263.7 73.5461 263.896 73.7901 264.016C74.0341 264.132 74.2881 264.19 74.5521 264.19C74.8161 264.19 75.0701 264.132 75.3141 264.016C75.5581 263.896 75.7721 263.7 75.9561 263.428C76.1441 263.156 76.2921 262.798 76.4001 262.354C76.5121 261.91 76.5681 261.36 76.5681 260.704ZM84.6391 260.704C84.6391 261.456 84.5571 262.108 84.3931 262.66C84.2331 263.208 84.0131 263.662 83.7331 264.022C83.4531 264.382 83.1211 264.65 82.7371 264.826C82.3571 265.002 81.9491 265.09 81.5131 265.09C81.0731 265.09 80.6631 265.002 80.2831 264.826C79.9071 264.65 79.5791 264.382 79.2991 264.022C79.0191 263.662 78.7991 263.208 78.6391 262.66C78.4791 262.108 78.3991 261.456 78.3991 260.704C78.3991 259.952 78.4791 259.3 78.6391 258.748C78.7991 258.196 79.0191 257.74 79.2991 257.38C79.5791 257.016 79.9071 256.746 80.2831 256.57C80.6631 256.394 81.0731 256.306 81.5131 256.306C81.9491 256.306 82.3571 256.394 82.7371 256.57C83.1211 256.746 83.4531 257.016 83.7331 257.38C84.0131 257.74 84.2331 258.196 84.3931 258.748C84.5571 259.3 84.6391 259.952 84.6391 260.704ZM83.5291 260.704C83.5291 260.048 83.4731 259.498 83.3611 259.054C83.2531 258.606 83.1051 258.246 82.9171 257.974C82.7331 257.702 82.5191 257.508 82.2751 257.392C82.0311 257.272 81.7771 257.212 81.5131 257.212C81.2491 257.212 80.9951 257.272 80.7511 257.392C80.5071 257.508 80.2931 257.702 80.1091 257.974C79.9251 258.246 79.7771 258.606 79.6651 259.054C79.5571 259.498 79.5031 260.048 79.5031 260.704C79.5031 261.36 79.5571 261.91 79.6651 262.354C79.7771 262.798 79.9251 263.156 80.1091 263.428C80.2931 263.7 80.5071 263.896 80.7511 264.016C80.9951 264.132 81.2491 264.19 81.5131 264.19C81.7771 264.19 82.0311 264.132 82.2751 264.016C82.5191 263.896 82.7331 263.7 82.9171 263.428C83.1051 263.156 83.2531 262.798 83.3611 262.354C83.4731 261.91 83.5291 261.36 83.5291 260.704Z" fill="#161A41" fill-opacity="0.33"/>
<path d="M70.0392 227.986C70.1552 227.986 70.2472 228.02 70.3152 228.088C70.3832 228.156 70.4172 228.244 70.4172 228.352V229H64.6812V228.634C64.6812 228.558 64.6972 228.48 64.7292 228.4C64.7612 228.32 64.8112 228.246 64.8792 228.178L67.6332 225.412C67.8612 225.18 68.0692 224.958 68.2572 224.746C68.4452 224.53 68.6052 224.314 68.7372 224.098C68.8692 223.882 68.9712 223.664 69.0432 223.444C69.1152 223.22 69.1512 222.982 69.1512 222.73C69.1512 222.478 69.1112 222.258 69.0312 222.07C68.9512 221.878 68.8412 221.72 68.7012 221.596C68.5652 221.472 68.4032 221.38 68.2152 221.32C68.0272 221.256 67.8252 221.224 67.6092 221.224C67.3892 221.224 67.1872 221.256 67.0032 221.32C66.8192 221.384 66.6552 221.474 66.5112 221.59C66.3712 221.702 66.2532 221.836 66.1572 221.992C66.0612 222.148 65.9932 222.32 65.9532 222.508C65.9052 222.648 65.8392 222.742 65.7552 222.79C65.6752 222.834 65.5612 222.846 65.4132 222.826L64.8552 222.73C64.9112 222.338 65.0192 221.992 65.1792 221.692C65.3432 221.388 65.5472 221.134 65.7912 220.93C66.0392 220.726 66.3212 220.572 66.6372 220.468C66.9532 220.36 67.2952 220.306 67.6632 220.306C68.0272 220.306 68.3672 220.36 68.6832 220.468C68.9992 220.576 69.2732 220.734 69.5052 220.942C69.7372 221.146 69.9192 221.396 70.0512 221.692C70.1832 221.988 70.2492 222.324 70.2492 222.7C70.2492 223.02 70.2012 223.318 70.1052 223.594C70.0092 223.866 69.8792 224.126 69.7152 224.374C69.5512 224.622 69.3612 224.864 69.1452 225.1C68.9332 225.336 68.7072 225.574 68.4672 225.814L66.1992 228.13C66.3592 228.086 66.5212 228.052 66.6852 228.028C66.8492 228 67.0072 227.986 67.1592 227.986H70.0392ZM77.6781 224.704C77.6781 225.456 77.5961 226.108 77.4321 226.66C77.2721 227.208 77.0521 227.662 76.7721 228.022C76.4921 228.382 76.1601 228.65 75.7761 228.826C75.3961 229.002 74.9881 229.09 74.5521 229.09C74.1121 229.09 73.7021 229.002 73.3221 228.826C72.9461 228.65 72.6181 228.382 72.3381 228.022C72.0581 227.662 71.8381 227.208 71.6781 226.66C71.5181 226.108 71.4381 225.456 71.4381 224.704C71.4381 223.952 71.5181 223.3 71.6781 222.748C71.8381 222.196 72.0581 221.74 72.3381 221.38C72.6181 221.016 72.9461 220.746 73.3221 220.57C73.7021 220.394 74.1121 220.306 74.5521 220.306C74.9881 220.306 75.3961 220.394 75.7761 220.57C76.1601 220.746 76.4921 221.016 76.7721 221.38C77.0521 221.74 77.2721 222.196 77.4321 222.748C77.5961 223.3 77.6781 223.952 77.6781 224.704ZM76.5681 224.704C76.5681 224.048 76.5121 223.498 76.4001 223.054C76.2921 222.606 76.1441 222.246 75.9561 221.974C75.7721 221.702 75.5581 221.508 75.3141 221.392C75.0701 221.272 74.8161 221.212 74.5521 221.212C74.2881 221.212 74.0341 221.272 73.7901 221.392C73.5461 221.508 73.3321 221.702 73.1481 221.974C72.9641 222.246 72.8161 222.606 72.7041 223.054C72.5961 223.498 72.5421 224.048 72.5421 224.704C72.5421 225.36 72.5961 225.91 72.7041 226.354C72.8161 226.798 72.9641 227.156 73.1481 227.428C73.3321 227.7 73.5461 227.896 73.7901 228.016C74.0341 228.132 74.2881 228.19 74.5521 228.19C74.8161 228.19 75.0701 228.132 75.3141 228.016C75.5581 227.896 75.7721 227.7 75.9561 227.428C76.1441 227.156 76.2921 226.798 76.4001 226.354C76.5121 225.91 76.5681 225.36 76.5681 224.704ZM84.6391 224.704C84.6391 225.456 84.5571 226.108 84.3931 226.66C84.2331 227.208 84.0131 227.662 83.7331 228.022C83.4531 228.382 83.1211 228.65 82.7371 228.826C82.3571 229.002 81.9491 229.09 81.5131 229.09C81.0731 229.09 80.6631 229.002 80.2831 228.826C79.9071 228.65 79.5791 228.382 79.2991 228.022C79.0191 227.662 78.7991 227.208 78.6391 226.66C78.4791 226.108 78.3991 225.456 78.3991 224.704C78.3991 223.952 78.4791 223.3 78.6391 222.748C78.7991 222.196 79.0191 221.74 79.2991 221.38C79.5791 221.016 79.9071 220.746 80.2831 220.57C80.6631 220.394 81.0731 220.306 81.5131 220.306C81.9491 220.306 82.3571 220.394 82.7371 220.57C83.1211 220.746 83.4531 221.016 83.7331 221.38C84.0131 221.74 84.2331 222.196 84.3931 222.748C84.5571 223.3 84.6391 223.952 84.6391 224.704ZM83.5291 224.704C83.5291 224.048 83.4731 223.498 83.3611 223.054C83.2531 222.606 83.1051 222.246 82.9171 221.974C82.7331 221.702 82.5191 221.508 82.2751 221.392C82.0311 221.272 81.7771 221.212 81.5131 221.212C81.2491 221.212 80.9951 221.272 80.7511 221.392C80.5071 221.508 80.2931 221.702 80.1091 221.974C79.9251 222.246 79.7771 222.606 79.6651 223.054C79.5571 223.498 79.5031 224.048 79.5031 224.704C79.5031 225.36 79.5571 225.91 79.6651 226.354C79.7771 226.798 79.9251 227.156 80.1091 227.428C80.2931 227.7 80.5071 227.896 80.7511 228.016C80.9951 228.132 81.2491 228.19 81.5131 228.19C81.7771 228.19 82.0311 228.132 82.2751 228.016C82.5191 227.896 82.7331 227.7 82.9171 227.428C83.1051 227.156 83.2531 226.798 83.3611 226.354C83.4731 225.91 83.5291 225.36 83.5291 224.704Z" fill="#161A41" fill-opacity="0.33"/>
<path d="M64.8972 186.73C64.9532 186.338 65.0612 185.992 65.2212 185.692C65.3812 185.388 65.5832 185.134 65.8272 184.93C66.0752 184.726 66.3572 184.572 66.6732 184.468C66.9932 184.36 67.3372 184.306 67.7052 184.306C68.0692 184.306 68.4052 184.358 68.7132 184.462C69.0212 184.566 69.2852 184.714 69.5052 184.906C69.7292 185.098 69.9032 185.33 70.0272 185.602C70.1512 185.874 70.2132 186.176 70.2132 186.508C70.2132 186.78 70.1772 187.024 70.1052 187.24C70.0372 187.452 69.9372 187.638 69.8052 187.798C69.6772 187.958 69.5212 188.094 69.3372 188.206C69.1532 188.318 68.9472 188.41 68.7192 188.482C69.2792 188.626 69.6992 188.874 69.9792 189.226C70.2632 189.574 70.4052 190.01 70.4052 190.534C70.4052 190.93 70.3292 191.286 70.1772 191.602C70.0292 191.918 69.8252 192.188 69.5652 192.412C69.3052 192.632 69.0012 192.802 68.6532 192.922C68.3092 193.038 67.9392 193.096 67.5432 193.096C67.0872 193.096 66.6972 193.04 66.3732 192.928C66.0492 192.812 65.7752 192.654 65.5512 192.454C65.3272 192.254 65.1432 192.018 64.9992 191.746C64.8552 191.47 64.7332 191.172 64.6332 190.852L65.0952 190.66C65.2152 190.608 65.3312 190.594 65.4432 190.618C65.5592 190.642 65.6432 190.708 65.6952 190.816C65.7472 190.928 65.8112 191.062 65.8872 191.218C65.9672 191.374 66.0752 191.524 66.2112 191.668C66.3472 191.812 66.5192 191.934 66.7272 192.034C66.9392 192.134 67.2072 192.184 67.5312 192.184C67.8312 192.184 68.0932 192.136 68.3172 192.04C68.5452 191.94 68.7332 191.812 68.8812 191.656C69.0332 191.5 69.1472 191.326 69.2232 191.134C69.2992 190.942 69.3372 190.752 69.3372 190.564C69.3372 190.332 69.3072 190.12 69.2472 189.928C69.1872 189.736 69.0752 189.57 68.9112 189.43C68.7472 189.29 68.5212 189.18 68.2332 189.1C67.9492 189.02 67.5832 188.98 67.1352 188.98V188.206C67.5032 188.202 67.8152 188.162 68.0712 188.086C68.3312 188.01 68.5412 187.906 68.7012 187.774C68.8652 187.642 68.9832 187.484 69.0552 187.3C69.1312 187.116 69.1692 186.912 69.1692 186.688C69.1692 186.44 69.1292 186.224 69.0492 186.04C68.9732 185.856 68.8672 185.704 68.7312 185.584C68.5952 185.464 68.4332 185.374 68.2452 185.314C68.0612 185.254 67.8612 185.224 67.6452 185.224C67.4292 185.224 67.2272 185.256 67.0392 185.32C66.8552 185.384 66.6912 185.474 66.5472 185.59C66.4072 185.702 66.2892 185.836 66.1932 185.992C66.0972 186.148 66.0292 186.32 65.9892 186.508C65.9372 186.648 65.8712 186.742 65.7912 186.79C65.7152 186.834 65.6032 186.846 65.4552 186.826L64.8972 186.73ZM77.6781 188.704C77.6781 189.456 77.5961 190.108 77.4321 190.66C77.2721 191.208 77.0521 191.662 76.7721 192.022C76.4921 192.382 76.1601 192.65 75.7761 192.826C75.3961 193.002 74.9881 193.09 74.5521 193.09C74.1121 193.09 73.7021 193.002 73.3221 192.826C72.9461 192.65 72.6181 192.382 72.3381 192.022C72.0581 191.662 71.8381 191.208 71.6781 190.66C71.5181 190.108 71.4381 189.456 71.4381 188.704C71.4381 187.952 71.5181 187.3 71.6781 186.748C71.8381 186.196 72.0581 185.74 72.3381 185.38C72.6181 185.016 72.9461 184.746 73.3221 184.57C73.7021 184.394 74.1121 184.306 74.5521 184.306C74.9881 184.306 75.3961 184.394 75.7761 184.57C76.1601 184.746 76.4921 185.016 76.7721 185.38C77.0521 185.74 77.2721 186.196 77.4321 186.748C77.5961 187.3 77.6781 187.952 77.6781 188.704ZM76.5681 188.704C76.5681 188.048 76.5121 187.498 76.4001 187.054C76.2921 186.606 76.1441 186.246 75.9561 185.974C75.7721 185.702 75.5581 185.508 75.3141 185.392C75.0701 185.272 74.8161 185.212 74.5521 185.212C74.2881 185.212 74.0341 185.272 73.7901 185.392C73.5461 185.508 73.3321 185.702 73.1481 185.974C72.9641 186.246 72.8161 186.606 72.7041 187.054C72.5961 187.498 72.5421 188.048 72.5421 188.704C72.5421 189.36 72.5961 189.91 72.7041 190.354C72.8161 190.798 72.9641 191.156 73.1481 191.428C73.3321 191.7 73.5461 191.896 73.7901 192.016C74.0341 192.132 74.2881 192.19 74.5521 192.19C74.8161 192.19 75.0701 192.132 75.3141 192.016C75.5581 191.896 75.7721 191.7 75.9561 191.428C76.1441 191.156 76.2921 190.798 76.4001 190.354C76.5121 189.91 76.5681 189.36 76.5681 188.704ZM84.6391 188.704C84.6391 189.456 84.5571 190.108 84.3931 190.66C84.2331 191.208 84.0131 191.662 83.7331 192.022C83.4531 192.382 83.1211 192.65 82.7371 192.826C82.3571 193.002 81.9491 193.09 81.5131 193.09C81.0731 193.09 80.6631 193.002 80.2831 192.826C79.9071 192.65 79.5791 192.382 79.2991 192.022C79.0191 191.662 78.7991 191.208 78.6391 190.66C78.4791 190.108 78.3991 189.456 78.3991 188.704C78.3991 187.952 78.4791 187.3 78.6391 186.748C78.7991 186.196 79.0191 185.74 79.2991 185.38C79.5791 185.016 79.9071 184.746 80.2831 184.57C80.6631 184.394 81.0731 184.306 81.5131 184.306C81.9491 184.306 82.3571 184.394 82.7371 184.57C83.1211 184.746 83.4531 185.016 83.7331 185.38C84.0131 185.74 84.2331 186.196 84.3931 186.748C84.5571 187.3 84.6391 187.952 84.6391 188.704ZM83.5291 188.704C83.5291 188.048 83.4731 187.498 83.3611 187.054C83.2531 186.606 83.1051 186.246 82.9171 185.974C82.7331 185.702 82.5191 185.508 82.2751 185.392C82.0311 185.272 81.7771 185.212 81.5131 185.212C81.2491 185.212 80.9951 185.272 80.7511 185.392C80.5071 185.508 80.2931 185.702 80.1091 185.974C79.9251 186.246 79.7771 186.606 79.6651 187.054C79.5571 187.498 79.5031 188.048 79.5031 188.704C79.5031 189.36 79.5571 189.91 79.6651 190.354C79.7771 190.798 79.9251 191.156 80.1091 191.428C80.2931 191.7 80.5071 191.896 80.7511 192.016C80.9951 192.132 81.2491 192.19 81.5131 192.19C81.7771 192.19 82.0311 192.132 82.2751 192.016C82.5191 191.896 82.7331 191.7 82.9171 191.428C83.1051 191.156 83.2531 190.798 83.3611 190.354C83.4731 189.91 83.5291 189.36 83.5291 188.704Z" fill="#161A41" fill-opacity="0.33"/>
<path d="M68.4972 153.898V150.352C68.4972 150.248 68.5012 150.134 68.5092 150.01C68.5172 149.886 68.5292 149.76 68.5452 149.632L65.4132 153.898H68.4972ZM70.7352 153.898V154.51C70.7352 154.574 70.7152 154.628 70.6752 154.672C70.6392 154.716 70.5812 154.738 70.5012 154.738H69.4332V157H68.4972V154.738H64.6812C64.6012 154.738 64.5312 154.716 64.4712 154.672C64.4152 154.624 64.3792 154.566 64.3632 154.498L64.2552 153.952L68.4372 148.402H69.4332V153.898H70.7352ZM77.6781 152.704C77.6781 153.456 77.5961 154.108 77.4321 154.66C77.2721 155.208 77.0521 155.662 76.7721 156.022C76.4921 156.382 76.1601 156.65 75.7761 156.826C75.3961 157.002 74.9881 157.09 74.5521 157.09C74.1121 157.09 73.7021 157.002 73.3221 156.826C72.9461 156.65 72.6181 156.382 72.3381 156.022C72.0581 155.662 71.8381 155.208 71.6781 154.66C71.5181 154.108 71.4381 153.456 71.4381 152.704C71.4381 151.952 71.5181 151.3 71.6781 150.748C71.8381 150.196 72.0581 149.74 72.3381 149.38C72.6181 149.016 72.9461 148.746 73.3221 148.57C73.7021 148.394 74.1121 148.306 74.5521 148.306C74.9881 148.306 75.3961 148.394 75.7761 148.57C76.1601 148.746 76.4921 149.016 76.7721 149.38C77.0521 149.74 77.2721 150.196 77.4321 150.748C77.5961 151.3 77.6781 151.952 77.6781 152.704ZM76.5681 152.704C76.5681 152.048 76.5121 151.498 76.4001 151.054C76.2921 150.606 76.1441 150.246 75.9561 149.974C75.7721 149.702 75.5581 149.508 75.3141 149.392C75.0701 149.272 74.8161 149.212 74.5521 149.212C74.2881 149.212 74.0341 149.272 73.7901 149.392C73.5461 149.508 73.3321 149.702 73.1481 149.974C72.9641 150.246 72.8161 150.606 72.7041 151.054C72.5961 151.498 72.5421 152.048 72.5421 152.704C72.5421 153.36 72.5961 153.91 72.7041 154.354C72.8161 154.798 72.9641 155.156 73.1481 155.428C73.3321 155.7 73.5461 155.896 73.7901 156.016C74.0341 156.132 74.2881 156.19 74.5521 156.19C74.8161 156.19 75.0701 156.132 75.3141 156.016C75.5581 155.896 75.7721 155.7 75.9561 155.428C76.1441 155.156 76.2921 154.798 76.4001 154.354C76.5121 153.91 76.5681 153.36 76.5681 152.704ZM84.6391 152.704C84.6391 153.456 84.5571 154.108 84.3931 154.66C84.2331 155.208 84.0131 155.662 83.7331 156.022C83.4531 156.382 83.1211 156.65 82.7371 156.826C82.3571 157.002 81.9491 157.09 81.5131 157.09C81.0731 157.09 80.6631 157.002 80.2831 156.826C79.9071 156.65 79.5791 156.382 79.2991 156.022C79.0191 155.662 78.7991 155.208 78.6391 154.66C78.4791 154.108 78.3991 153.456 78.3991 152.704C78.3991 151.952 78.4791 151.3 78.6391 150.748C78.7991 150.196 79.0191 149.74 79.2991 149.38C79.5791 149.016 79.9071 148.746 80.2831 148.57C80.6631 148.394 81.0731 148.306 81.5131 148.306C81.9491 148.306 82.3571 148.394 82.7371 148.57C83.1211 148.746 83.4531 149.016 83.7331 149.38C84.0131 149.74 84.2331 150.196 84.3931 150.748C84.5571 151.3 84.6391 151.952 84.6391 152.704ZM83.5291 152.704C83.5291 152.048 83.4731 151.498 83.3611 151.054C83.2531 150.606 83.1051 150.246 82.9171 149.974C82.7331 149.702 82.5191 149.508 82.2751 149.392C82.0311 149.272 81.7771 149.212 81.5131 149.212C81.2491 149.212 80.9951 149.272 80.7511 149.392C80.5071 149.508 80.2931 149.702 80.1091 149.974C79.9251 150.246 79.7771 150.606 79.6651 151.054C79.5571 151.498 79.5031 152.048 79.5031 152.704C79.5031 153.36 79.5571 153.91 79.6651 154.354C79.7771 154.798 79.9251 155.156 80.1091 155.428C80.2931 155.7 80.5071 155.896 80.7511 156.016C80.9951 156.132 81.2491 156.19 81.5131 156.19C81.7771 156.19 82.0311 156.132 82.2751 156.016C82.5191 155.896 82.7331 155.7 82.9171 155.428C83.1051 155.156 83.2531 154.798 83.3611 154.354C83.4731 153.91 83.5291 153.36 83.5291 152.704Z" fill="#161A41" fill-opacity="0.33"/>
<path d="M66.2892 115.648C66.7372 115.552 67.1492 115.504 67.5252 115.504C67.9732 115.504 68.3692 115.57 68.7132 115.702C69.0572 115.834 69.3432 116.016 69.5712 116.248C69.8032 116.48 69.9772 116.754 70.0932 117.07C70.2132 117.386 70.2732 117.73 70.2732 118.102C70.2732 118.558 70.1932 118.97 70.0332 119.338C69.8772 119.706 69.6592 120.022 69.3792 120.286C69.1032 120.546 68.7772 120.746 68.4012 120.886C68.0252 121.026 67.6192 121.096 67.1832 121.096C66.9312 121.096 66.6892 121.07 66.4572 121.018C66.2252 120.97 66.0072 120.904 65.8032 120.82C65.6032 120.736 65.4172 120.64 65.2452 120.532C65.0732 120.424 64.9212 120.31 64.7892 120.19L65.1192 119.734C65.1912 119.63 65.2852 119.578 65.4012 119.578C65.4812 119.578 65.5712 119.61 65.6712 119.674C65.7712 119.734 65.8932 119.802 66.0372 119.878C66.1812 119.954 66.3492 120.024 66.5412 120.088C66.7372 120.148 66.9692 120.178 67.2372 120.178C67.5372 120.178 67.8072 120.13 68.0472 120.034C68.2872 119.938 68.4932 119.802 68.6652 119.626C68.8372 119.446 68.9692 119.232 69.0612 118.984C69.1532 118.736 69.1992 118.458 69.1992 118.15C69.1992 117.882 69.1592 117.64 69.0792 117.424C69.0032 117.208 68.8852 117.024 68.7252 116.872C68.5692 116.72 68.3732 116.602 68.1372 116.518C67.9012 116.434 67.6252 116.392 67.3092 116.392C67.0932 116.392 66.8672 116.41 66.6312 116.446C66.3992 116.482 66.1612 116.54 65.9172 116.62L65.2452 116.422L65.9352 112.402H70.0092V112.87C70.0092 113.022 69.9612 113.148 69.8652 113.248C69.7732 113.344 69.6132 113.392 69.3852 113.392H66.6852L66.2892 115.648ZM77.6781 116.704C77.6781 117.456 77.5961 118.108 77.4321 118.66C77.2721 119.208 77.0521 119.662 76.7721 120.022C76.4921 120.382 76.1601 120.65 75.7761 120.826C75.3961 121.002 74.9881 121.09 74.5521 121.09C74.1121 121.09 73.7021 121.002 73.3221 120.826C72.9461 120.65 72.6181 120.382 72.3381 120.022C72.0581 119.662 71.8381 119.208 71.6781 118.66C71.5181 118.108 71.4381 117.456 71.4381 116.704C71.4381 115.952 71.5181 115.3 71.6781 114.748C71.8381 114.196 72.0581 113.74 72.3381 113.38C72.6181 113.016 72.9461 112.746 73.3221 112.57C73.7021 112.394 74.1121 112.306 74.5521 112.306C74.9881 112.306 75.3961 112.394 75.7761 112.57C76.1601 112.746 76.4921 113.016 76.7721 113.38C77.0521 113.74 77.2721 114.196 77.4321 114.748C77.5961 115.3 77.6781 115.952 77.6781 116.704ZM76.5681 116.704C76.5681 116.048 76.5121 115.498 76.4001 115.054C76.2921 114.606 76.1441 114.246 75.9561 113.974C75.7721 113.702 75.5581 113.508 75.3141 113.392C75.0701 113.272 74.8161 113.212 74.5521 113.212C74.2881 113.212 74.0341 113.272 73.7901 113.392C73.5461 113.508 73.3321 113.702 73.1481 113.974C72.9641 114.246 72.8161 114.606 72.7041 115.054C72.5961 115.498 72.5421 116.048 72.5421 116.704C72.5421 117.36 72.5961 117.91 72.7041 118.354C72.8161 118.798 72.9641 119.156 73.1481 119.428C73.3321 119.7 73.5461 119.896 73.7901 120.016C74.0341 120.132 74.2881 120.19 74.5521 120.19C74.8161 120.19 75.0701 120.132 75.3141 120.016C75.5581 119.896 75.7721 119.7 75.9561 119.428C76.1441 119.156 76.2921 118.798 76.4001 118.354C76.5121 117.91 76.5681 117.36 76.5681 116.704ZM84.6391 116.704C84.6391 117.456 84.5571 118.108 84.3931 118.66C84.2331 119.208 84.0131 119.662 83.7331 120.022C83.4531 120.382 83.1211 120.65 82.7371 120.826C82.3571 121.002 81.9491 121.09 81.5131 121.09C81.0731 121.09 80.6631 121.002 80.2831 120.826C79.9071 120.65 79.5791 120.382 79.2991 120.022C79.0191 119.662 78.7991 119.208 78.6391 118.66C78.4791 118.108 78.3991 117.456 78.3991 116.704C78.3991 115.952 78.4791 115.3 78.6391 114.748C78.7991 114.196 79.0191 113.74 79.2991 113.38C79.5791 113.016 79.9071 112.746 80.2831 112.57C80.6631 112.394 81.0731 112.306 81.5131 112.306C81.9491 112.306 82.3571 112.394 82.7371 112.57C83.1211 112.746 83.4531 113.016 83.7331 113.38C84.0131 113.74 84.2331 114.196 84.3931 114.748C84.5571 115.3 84.6391 115.952 84.6391 116.704ZM83.5291 116.704C83.5291 116.048 83.4731 115.498 83.3611 115.054C83.2531 114.606 83.1051 114.246 82.9171 113.974C82.7331 113.702 82.5191 113.508 82.2751 113.392C82.0311 113.272 81.7771 113.212 81.5131 113.212C81.2491 113.212 80.9951 113.272 80.7511 113.392C80.5071 113.508 80.2931 113.702 80.1091 113.974C79.9251 114.246 79.7771 114.606 79.6651 115.054C79.5571 115.498 79.5031 116.048 79.5031 116.704C79.5031 117.36 79.5571 117.91 79.6651 118.354C79.7771 118.798 79.9251 119.156 80.1091 119.428C80.2931 119.7 80.5071 119.896 80.7511 120.016C80.9951 120.132 81.2491 120.19 81.5131 120.19C81.7771 120.19 82.0311 120.132 82.2751 120.016C82.5191 119.896 82.7331 119.7 82.9171 119.428C83.1051 119.156 83.2531 118.798 83.3611 118.354C83.4731 117.91 83.5291 117.36 83.5291 116.704Z" fill="#161A41" fill-opacity="0.33"/>
<path d="M67.5852 84.208C67.8732 84.208 68.1332 84.162 68.3652 84.07C68.6012 83.978 68.8012 83.85 68.9652 83.686C69.1332 83.522 69.2612 83.328 69.3492 83.104C69.4412 82.88 69.4872 82.636 69.4872 82.372C69.4872 82.092 69.4432 81.84 69.3552 81.616C69.2672 81.388 69.1412 81.196 68.9772 81.04C68.8172 80.88 68.6252 80.758 68.4012 80.674C68.1772 80.59 67.9312 80.548 67.6632 80.548C67.3752 80.548 67.1152 80.598 66.8832 80.698C66.6512 80.794 66.4532 80.926 66.2892 81.094C66.1292 81.258 66.0052 81.45 65.9172 81.67C65.8332 81.886 65.7912 82.112 65.7912 82.348C65.7912 82.624 65.8312 82.876 65.9112 83.104C65.9912 83.332 66.1072 83.528 66.2592 83.692C66.4152 83.856 66.6032 83.984 66.8232 84.076C67.0472 84.164 67.3012 84.208 67.5852 84.208ZM66.9612 79.624C66.8852 79.72 66.8112 79.814 66.7392 79.906C66.6712 79.994 66.6052 80.082 66.5412 80.17C66.7452 80.03 66.9692 79.922 67.2132 79.846C67.4572 79.77 67.7232 79.732 68.0112 79.732C68.3592 79.732 68.6872 79.79 68.9952 79.906C69.3032 80.018 69.5712 80.184 69.7992 80.404C70.0312 80.62 70.2152 80.888 70.3512 81.208C70.4872 81.524 70.5552 81.886 70.5552 82.294C70.5552 82.69 70.4832 83.058 70.3392 83.398C70.1952 83.738 69.9932 84.034 69.7332 84.286C69.4772 84.538 69.1672 84.736 68.8032 84.88C68.4432 85.024 68.0452 85.096 67.6092 85.096C67.1772 85.096 66.7852 85.028 66.4332 84.892C66.0812 84.752 65.7812 84.556 65.5332 84.304C65.2892 84.048 65.0992 83.74 64.9632 83.38C64.8312 83.016 64.7652 82.61 64.7652 82.162C64.7652 81.786 64.8472 81.386 65.0112 80.962C65.1792 80.534 65.4452 80.078 65.8092 79.594L67.9932 76.66C68.0492 76.588 68.1252 76.528 68.2212 76.48C68.3212 76.428 68.4352 76.402 68.5632 76.402H69.5112L66.9612 79.624ZM77.6781 80.704C77.6781 81.456 77.5961 82.108 77.4321 82.66C77.2721 83.208 77.0521 83.662 76.7721 84.022C76.4921 84.382 76.1601 84.65 75.7761 84.826C75.3961 85.002 74.9881 85.09 74.5521 85.09C74.1121 85.09 73.7021 85.002 73.3221 84.826C72.9461 84.65 72.6181 84.382 72.3381 84.022C72.0581 83.662 71.8381 83.208 71.6781 82.66C71.5181 82.108 71.4381 81.456 71.4381 80.704C71.4381 79.952 71.5181 79.3 71.6781 78.748C71.8381 78.196 72.0581 77.74 72.3381 77.38C72.6181 77.016 72.9461 76.746 73.3221 76.57C73.7021 76.394 74.1121 76.306 74.5521 76.306C74.9881 76.306 75.3961 76.394 75.7761 76.57C76.1601 76.746 76.4921 77.016 76.7721 77.38C77.0521 77.74 77.2721 78.196 77.4321 78.748C77.5961 79.3 77.6781 79.952 77.6781 80.704ZM76.5681 80.704C76.5681 80.048 76.5121 79.498 76.4001 79.054C76.2921 78.606 76.1441 78.246 75.9561 77.974C75.7721 77.702 75.5581 77.508 75.3141 77.392C75.0701 77.272 74.8161 77.212 74.5521 77.212C74.2881 77.212 74.0341 77.272 73.7901 77.392C73.5461 77.508 73.3321 77.702 73.1481 77.974C72.9641 78.246 72.8161 78.606 72.7041 79.054C72.5961 79.498 72.5421 80.048 72.5421 80.704C72.5421 81.36 72.5961 81.91 72.7041 82.354C72.8161 82.798 72.9641 83.156 73.1481 83.428C73.3321 83.7 73.5461 83.896 73.7901 84.016C74.0341 84.132 74.2881 84.19 74.5521 84.19C74.8161 84.19 75.0701 84.132 75.3141 84.016C75.5581 83.896 75.7721 83.7 75.9561 83.428C76.1441 83.156 76.2921 82.798 76.4001 82.354C76.5121 81.91 76.5681 81.36 76.5681 80.704ZM84.6391 80.704C84.6391 81.456 84.5571 82.108 84.3931 82.66C84.2331 83.208 84.0131 83.662 83.7331 84.022C83.4531 84.382 83.1211 84.65 82.7371 84.826C82.3571 85.002 81.9491 85.09 81.5131 85.09C81.0731 85.09 80.6631 85.002 80.2831 84.826C79.9071 84.65 79.5791 84.382 79.2991 84.022C79.0191 83.662 78.7991 83.208 78.6391 82.66C78.4791 82.108 78.3991 81.456 78.3991 80.704C78.3991 79.952 78.4791 79.3 78.6391 78.748C78.7991 78.196 79.0191 77.74 79.2991 77.38C79.5791 77.016 79.9071 76.746 80.2831 76.57C80.6631 76.394 81.0731 76.306 81.5131 76.306C81.9491 76.306 82.3571 76.394 82.7371 76.57C83.1211 76.746 83.4531 77.016 83.7331 77.38C84.0131 77.74 84.2331 78.196 84.3931 78.748C84.5571 79.3 84.6391 79.952 84.6391 80.704ZM83.5291 80.704C83.5291 80.048 83.4731 79.498 83.3611 79.054C83.2531 78.606 83.1051 78.246 82.9171 77.974C82.7331 77.702 82.5191 77.508 82.2751 77.392C82.0311 77.272 81.7771 77.212 81.5131 77.212C81.2491 77.212 80.9951 77.272 80.7511 77.392C80.5071 77.508 80.2931 77.702 80.1091 77.974C79.9251 78.246 79.7771 78.606 79.6651 79.054C79.5571 79.498 79.5031 80.048 79.5031 80.704C79.5031 81.36 79.5571 81.91 79.6651 82.354C79.7771 82.798 79.9251 83.156 80.1091 83.428C80.2931 83.7 80.5071 83.896 80.7511 84.016C80.9951 84.132 81.2491 84.19 81.5131 84.19C81.7771 84.19 82.0311 84.132 82.2751 84.016C82.5191 83.896 82.7331 83.7 82.9171 83.428C83.1051 83.156 83.2531 82.798 83.3611 82.354C83.4731 81.91 83.5291 81.36 83.5291 80.704Z" fill="#161A41" fill-opacity="0.33"/>
<path d="M137.873 305.537C137.831 305.607 137.784 305.661 137.733 305.698C137.686 305.731 137.628 305.747 137.558 305.747C137.479 305.747 137.385 305.707 137.278 305.628C137.171 305.549 137.035 305.462 136.872 305.369C136.713 305.271 136.52 305.182 136.291 305.103C136.067 305.024 135.794 304.984 135.472 304.984C135.169 304.984 134.9 305.026 134.667 305.11C134.438 305.189 134.245 305.299 134.086 305.439C133.932 305.579 133.815 305.745 133.736 305.936C133.657 306.123 133.617 306.326 133.617 306.545C133.617 306.825 133.685 307.058 133.82 307.245C133.96 307.427 134.142 307.583 134.366 307.714C134.595 307.845 134.851 307.959 135.136 308.057C135.425 308.15 135.719 308.248 136.018 308.351C136.321 308.454 136.615 308.57 136.9 308.701C137.189 308.827 137.446 308.988 137.67 309.184C137.899 309.38 138.081 309.62 138.216 309.905C138.356 310.19 138.426 310.54 138.426 310.955C138.426 311.394 138.351 311.807 138.202 312.194C138.053 312.577 137.833 312.91 137.544 313.195C137.259 313.48 136.907 313.704 136.487 313.867C136.072 314.03 135.598 314.112 135.066 314.112C134.413 314.112 133.82 313.995 133.288 313.762C132.756 313.524 132.301 313.204 131.923 312.803L132.315 312.159C132.352 312.108 132.397 312.066 132.448 312.033C132.504 311.996 132.565 311.977 132.63 311.977C132.691 311.977 132.758 312.003 132.833 312.054C132.912 312.101 133.001 312.161 133.099 312.236C133.197 312.311 133.309 312.392 133.435 312.481C133.561 312.57 133.703 312.651 133.862 312.726C134.025 312.801 134.21 312.864 134.415 312.915C134.62 312.962 134.851 312.985 135.108 312.985C135.43 312.985 135.717 312.941 135.969 312.852C136.221 312.763 136.433 312.64 136.606 312.481C136.783 312.318 136.919 312.124 137.012 311.9C137.105 311.676 137.152 311.426 137.152 311.151C137.152 310.848 137.082 310.6 136.942 310.409C136.807 310.213 136.627 310.05 136.403 309.919C136.179 309.788 135.922 309.679 135.633 309.59C135.344 309.497 135.05 309.403 134.751 309.31C134.452 309.212 134.158 309.1 133.869 308.974C133.58 308.848 133.323 308.685 133.099 308.484C132.875 308.283 132.693 308.034 132.553 307.735C132.418 307.432 132.35 307.058 132.35 306.615C132.35 306.26 132.418 305.917 132.553 305.586C132.693 305.255 132.894 304.961 133.155 304.704C133.421 304.447 133.745 304.242 134.128 304.088C134.515 303.934 134.959 303.857 135.458 303.857C136.018 303.857 136.527 303.946 136.984 304.123C137.446 304.3 137.852 304.557 138.202 304.893L137.873 305.537ZM145.744 306.909V314H145.002C144.824 314 144.712 313.914 144.666 313.741L144.568 312.978C144.26 313.319 143.914 313.594 143.532 313.804C143.149 314.009 142.71 314.112 142.216 314.112C141.828 314.112 141.485 314.049 141.187 313.923C140.893 313.792 140.645 313.61 140.445 313.377C140.244 313.144 140.092 312.861 139.99 312.53C139.892 312.199 139.843 311.832 139.843 311.431V306.909H141.089V311.431C141.089 311.968 141.21 312.383 141.453 312.677C141.7 312.971 142.076 313.118 142.58 313.118C142.948 313.118 143.291 313.032 143.609 312.859C143.931 312.682 144.227 312.439 144.498 312.131V306.909H145.744ZM148.895 307.938C149.049 307.765 149.213 307.609 149.385 307.469C149.558 307.329 149.74 307.21 149.931 307.112C150.127 307.009 150.333 306.932 150.547 306.881C150.767 306.825 151.002 306.797 151.254 306.797C151.642 306.797 151.982 306.862 152.276 306.993C152.575 307.119 152.822 307.301 153.018 307.539C153.219 307.772 153.371 308.055 153.473 308.386C153.576 308.717 153.627 309.084 153.627 309.485V314H152.374V309.485C152.374 308.948 152.251 308.533 152.003 308.239C151.761 307.94 151.39 307.791 150.89 307.791C150.522 307.791 150.176 307.88 149.854 308.057C149.537 308.234 149.243 308.475 148.972 308.778V314H147.719V306.909H148.468C148.646 306.909 148.755 306.995 148.797 307.168L148.895 307.938Z" fill="#161A41" fill-opacity="0.35"/>
<path d="M200.451 303.969V314H199.261V306.629C199.261 306.531 199.264 306.426 199.268 306.314C199.278 306.202 199.287 306.088 199.296 305.971L195.852 312.243C195.745 312.453 195.582 312.558 195.362 312.558H195.166C194.947 312.558 194.784 312.453 194.676 312.243L191.162 305.943C191.19 306.19 191.204 306.419 191.204 306.629V314H190.014V303.969H191.015C191.137 303.969 191.23 303.981 191.295 304.004C191.361 304.027 191.424 304.093 191.484 304.2L194.949 310.374C195.005 310.486 195.059 310.603 195.11 310.724C195.166 310.845 195.218 310.969 195.264 311.095C195.311 310.969 195.36 310.845 195.411 310.724C195.463 310.598 195.519 310.479 195.579 310.367L198.981 304.2C199.037 304.093 199.098 304.027 199.163 304.004C199.233 303.981 199.329 303.969 199.45 303.969H200.451ZM205.493 306.797C206.011 306.797 206.477 306.883 206.893 307.056C207.308 307.229 207.663 307.474 207.957 307.791C208.251 308.108 208.475 308.493 208.629 308.946C208.787 309.394 208.867 309.896 208.867 310.451C208.867 311.011 208.787 311.515 208.629 311.963C208.475 312.411 208.251 312.794 207.957 313.111C207.663 313.428 207.308 313.673 206.893 313.846C206.477 314.014 206.011 314.098 205.493 314.098C204.97 314.098 204.499 314.014 204.079 313.846C203.663 313.673 203.309 313.428 203.015 313.111C202.721 312.794 202.494 312.411 202.336 311.963C202.182 311.515 202.105 311.011 202.105 310.451C202.105 309.896 202.182 309.394 202.336 308.946C202.494 308.493 202.721 308.108 203.015 307.791C203.309 307.474 203.663 307.229 204.079 307.056C204.499 306.883 204.97 306.797 205.493 306.797ZM205.493 313.125C206.193 313.125 206.715 312.892 207.061 312.425C207.406 311.954 207.579 311.298 207.579 310.458C207.579 309.613 207.406 308.955 207.061 308.484C206.715 308.013 206.193 307.777 205.493 307.777C205.138 307.777 204.828 307.838 204.562 307.959C204.3 308.08 204.081 308.255 203.904 308.484C203.731 308.713 203.6 308.995 203.512 309.331C203.428 309.662 203.386 310.038 203.386 310.458C203.386 311.298 203.558 311.954 203.904 312.425C204.254 312.892 204.783 313.125 205.493 313.125ZM211.623 307.938C211.777 307.765 211.94 307.609 212.113 307.469C212.286 307.329 212.468 307.21 212.659 307.112C212.855 307.009 213.06 306.932 213.275 306.881C213.494 306.825 213.73 306.797 213.982 306.797C214.369 306.797 214.71 306.862 215.004 306.993C215.303 307.119 215.55 307.301 215.746 307.539C215.947 307.772 216.098 308.055 216.201 308.386C216.304 308.717 216.355 309.084 216.355 309.485V314H215.102V309.485C215.102 308.948 214.978 308.533 214.731 308.239C214.488 307.94 214.117 307.791 213.618 307.791C213.249 307.791 212.904 307.88 212.582 308.057C212.265 308.234 211.971 308.475 211.7 308.778V314H210.447V306.909H211.196C211.373 306.909 211.483 306.995 211.525 307.168L211.623 307.938Z" fill="#161A41" fill-opacity="0.35"/>
<path d="M260.058 305.11H256.81V314H255.459V305.11H252.204V303.969H260.058V305.11ZM265.621 306.909V314H264.879C264.701 314 264.589 313.914 264.543 313.741L264.445 312.978C264.137 313.319 263.791 313.594 263.409 313.804C263.026 314.009 262.587 314.112 262.093 314.112C261.705 314.112 261.362 314.049 261.064 313.923C260.77 313.792 260.522 313.61 260.322 313.377C260.121 313.144 259.969 312.861 259.867 312.53C259.769 312.199 259.72 311.832 259.72 311.431V306.909H260.966V311.431C260.966 311.968 261.087 312.383 261.33 312.677C261.577 312.971 261.953 313.118 262.457 313.118C262.825 313.118 263.168 313.032 263.486 312.859C263.808 312.682 264.104 312.439 264.375 312.131V306.909H265.621ZM272.342 309.681C272.342 309.392 272.3 309.128 272.216 308.89C272.137 308.647 272.018 308.44 271.859 308.267C271.705 308.09 271.516 307.954 271.292 307.861C271.068 307.763 270.814 307.714 270.529 307.714C269.932 307.714 269.458 307.889 269.108 308.239C268.763 308.584 268.548 309.065 268.464 309.681H272.342ZM273.35 313.006C273.196 313.193 273.012 313.356 272.797 313.496C272.583 313.631 272.352 313.743 272.104 313.832C271.862 313.921 271.61 313.986 271.348 314.028C271.087 314.075 270.828 314.098 270.571 314.098C270.081 314.098 269.629 314.016 269.213 313.853C268.803 313.685 268.446 313.442 268.142 313.125C267.844 312.803 267.61 312.406 267.442 311.935C267.274 311.464 267.19 310.922 267.19 310.311C267.19 309.816 267.265 309.354 267.414 308.925C267.568 308.496 267.788 308.125 268.072 307.812C268.357 307.495 268.705 307.247 269.115 307.07C269.526 306.888 269.988 306.797 270.501 306.797C270.926 306.797 271.318 306.869 271.677 307.014C272.041 307.154 272.354 307.359 272.615 307.63C272.881 307.896 273.089 308.227 273.238 308.624C273.388 309.016 273.462 309.464 273.462 309.968C273.462 310.164 273.441 310.295 273.399 310.36C273.357 310.425 273.278 310.458 273.161 310.458H268.422C268.436 310.906 268.497 311.296 268.604 311.627C268.716 311.958 268.87 312.236 269.066 312.46C269.262 312.679 269.496 312.845 269.766 312.957C270.037 313.064 270.34 313.118 270.676 313.118C270.989 313.118 271.257 313.083 271.481 313.013C271.71 312.938 271.906 312.859 272.069 312.775C272.233 312.691 272.368 312.614 272.475 312.544C272.587 312.469 272.683 312.432 272.762 312.432C272.865 312.432 272.944 312.472 273 312.551L273.35 313.006Z" fill="#161A41" fill-opacity="0.35"/>
<path d="M322.815 303.969L319.686 314H318.468L315.927 306.349C315.904 306.274 315.88 306.195 315.857 306.111C315.838 306.027 315.817 305.938 315.794 305.845C315.771 305.938 315.747 306.027 315.724 306.111C315.701 306.195 315.677 306.274 315.654 306.349L313.099 314H311.881L308.752 303.969H309.879C310 303.969 310.101 303.999 310.18 304.06C310.264 304.121 310.318 304.198 310.341 304.291L312.413 311.263C312.446 311.389 312.476 311.524 312.504 311.669C312.537 311.814 312.567 311.968 312.595 312.131C312.628 311.968 312.66 311.814 312.693 311.669C312.73 311.52 312.77 311.384 312.812 311.263L315.171 304.291C315.199 304.212 315.253 304.139 315.332 304.074C315.416 304.004 315.516 303.969 315.633 303.969H316.025C316.146 303.969 316.244 303.999 316.319 304.06C316.394 304.121 316.45 304.198 316.487 304.291L318.839 311.263C318.881 311.384 318.918 311.515 318.951 311.655C318.988 311.795 319.023 311.942 319.056 312.096C319.079 311.942 319.105 311.795 319.133 311.655C319.161 311.515 319.191 311.384 319.224 311.263L321.303 304.291C321.326 304.207 321.378 304.132 321.457 304.067C321.541 304.002 321.641 303.969 321.758 303.969H322.815ZM327.967 309.681C327.967 309.392 327.925 309.128 327.841 308.89C327.762 308.647 327.643 308.44 327.484 308.267C327.33 308.09 327.141 307.954 326.917 307.861C326.693 307.763 326.439 307.714 326.154 307.714C325.557 307.714 325.083 307.889 324.733 308.239C324.388 308.584 324.173 309.065 324.089 309.681H327.967ZM328.975 313.006C328.821 313.193 328.637 313.356 328.422 313.496C328.208 313.631 327.977 313.743 327.729 313.832C327.487 313.921 327.235 313.986 326.973 314.028C326.712 314.075 326.453 314.098 326.196 314.098C325.706 314.098 325.254 314.016 324.838 313.853C324.428 313.685 324.071 313.442 323.767 313.125C323.469 312.803 323.235 312.406 323.067 311.935C322.899 311.464 322.815 310.922 322.815 310.311C322.815 309.816 322.89 309.354 323.039 308.925C323.193 308.496 323.413 308.125 323.697 307.812C323.982 307.495 324.33 307.247 324.74 307.07C325.151 306.888 325.613 306.797 326.126 306.797C326.551 306.797 326.943 306.869 327.302 307.014C327.666 307.154 327.979 307.359 328.24 307.63C328.506 307.896 328.714 308.227 328.863 308.624C329.013 309.016 329.087 309.464 329.087 309.968C329.087 310.164 329.066 310.295 329.024 310.36C328.982 310.425 328.903 310.458 328.786 310.458H324.047C324.061 310.906 324.122 311.296 324.229 311.627C324.341 311.958 324.495 312.236 324.691 312.46C324.887 312.679 325.121 312.845 325.391 312.957C325.662 313.064 325.965 313.118 326.301 313.118C326.614 313.118 326.882 313.083 327.106 313.013C327.335 312.938 327.531 312.859 327.694 312.775C327.858 312.691 327.993 312.614 328.1 312.544C328.212 312.469 328.308 312.432 328.387 312.432C328.49 312.432 328.569 312.472 328.625 312.551L328.975 313.006ZM335.238 308.596C335.005 308.283 334.753 308.066 334.482 307.945C334.211 307.819 333.908 307.756 333.572 307.756C332.914 307.756 332.408 307.992 332.053 308.463C331.698 308.934 331.521 309.606 331.521 310.479C331.521 310.941 331.561 311.338 331.64 311.669C331.719 311.996 331.836 312.266 331.99 312.481C332.144 312.691 332.333 312.845 332.557 312.943C332.781 313.041 333.035 313.09 333.32 313.09C333.731 313.09 334.088 312.997 334.391 312.81C334.699 312.623 334.981 312.36 335.238 312.019V308.596ZM336.484 303.689V314H335.742C335.565 314 335.453 313.914 335.406 313.741L335.294 312.88C334.991 313.244 334.645 313.538 334.258 313.762C333.871 313.986 333.423 314.098 332.914 314.098C332.508 314.098 332.139 314.021 331.808 313.867C331.477 313.708 331.194 313.477 330.961 313.174C330.728 312.871 330.548 312.493 330.422 312.04C330.296 311.587 330.233 311.067 330.233 310.479C330.233 309.956 330.303 309.471 330.443 309.023C330.583 308.57 330.784 308.178 331.045 307.847C331.306 307.516 331.626 307.257 332.004 307.07C332.387 306.879 332.816 306.783 333.292 306.783C333.726 306.783 334.097 306.858 334.405 307.007C334.718 307.152 334.995 307.355 335.238 307.616V303.689H336.484Z" fill="#161A41" fill-opacity="0.35"/>
<path d="M379.183 305.11H375.935V314H374.584V305.11H371.329V303.969H379.183V305.11ZM381.508 307.854C381.811 307.532 382.147 307.275 382.516 307.084C382.884 306.893 383.309 306.797 383.79 306.797C384.177 306.797 384.518 306.862 384.812 306.993C385.11 307.119 385.358 307.301 385.554 307.539C385.754 307.772 385.906 308.055 386.009 308.386C386.111 308.717 386.163 309.084 386.163 309.485V314H384.91V309.485C384.91 308.948 384.786 308.533 384.539 308.239C384.296 307.94 383.925 307.791 383.426 307.791C383.057 307.791 382.712 307.88 382.39 308.057C382.072 308.234 381.778 308.475 381.508 308.778V314H380.255V303.689H381.508V307.854ZM393.892 306.909V314H393.15C392.973 314 392.861 313.914 392.814 313.741L392.716 312.978C392.408 313.319 392.063 313.594 391.68 313.804C391.298 314.009 390.859 314.112 390.364 314.112C389.977 314.112 389.634 314.049 389.335 313.923C389.041 313.792 388.794 313.61 388.593 313.377C388.393 313.144 388.241 312.861 388.138 312.53C388.04 312.199 387.991 311.832 387.991 311.431V306.909H389.237V311.431C389.237 311.968 389.359 312.383 389.601 312.677C389.849 312.971 390.224 313.118 390.728 313.118C391.097 313.118 391.44 313.032 391.757 312.859C392.079 312.682 392.376 312.439 392.646 312.131V306.909H393.892Z" fill="#161A41" fill-opacity="0.35"/>
<path d="M437.75 305.075V308.582H441.873V309.688H437.75V314H436.392V303.969H442.573V305.075H437.75ZM444.596 308.33C444.82 307.845 445.095 307.467 445.422 307.196C445.748 306.921 446.147 306.783 446.619 306.783C446.768 306.783 446.91 306.799 447.046 306.832C447.186 306.865 447.309 306.916 447.417 306.986L447.326 307.917C447.298 308.034 447.228 308.092 447.116 308.092C447.05 308.092 446.955 308.078 446.829 308.05C446.703 308.022 446.56 308.008 446.402 308.008C446.178 308.008 445.977 308.041 445.8 308.106C445.627 308.171 445.471 308.269 445.331 308.4C445.195 308.526 445.072 308.685 444.96 308.876C444.852 309.063 444.754 309.277 444.666 309.52V314H443.413V306.909H444.127C444.262 306.909 444.355 306.935 444.407 306.986C444.458 307.037 444.493 307.126 444.512 307.252L444.596 308.33ZM449.828 306.909V314H448.582V306.909H449.828ZM450.094 304.683C450.094 304.804 450.069 304.919 450.017 305.026C449.971 305.129 449.905 305.222 449.821 305.306C449.742 305.385 449.646 305.448 449.534 305.495C449.427 305.542 449.313 305.565 449.191 305.565C449.07 305.565 448.956 305.542 448.848 305.495C448.746 305.448 448.655 305.385 448.575 305.306C448.496 305.222 448.433 305.129 448.386 305.026C448.34 304.919 448.316 304.804 448.316 304.683C448.316 304.562 448.34 304.447 448.386 304.34C448.433 304.228 448.496 304.132 448.575 304.053C448.655 303.969 448.746 303.904 448.848 303.857C448.956 303.81 449.07 303.787 449.191 303.787C449.313 303.787 449.427 303.81 449.534 303.857C449.646 303.904 449.742 303.969 449.821 304.053C449.905 304.132 449.971 304.228 450.017 304.34C450.069 304.447 450.094 304.562 450.094 304.683Z" fill="#161A41" fill-opacity="0.35"/>
<path d="M499.719 305.537C499.677 305.607 499.63 305.661 499.579 305.698C499.532 305.731 499.474 305.747 499.404 305.747C499.324 305.747 499.231 305.707 499.124 305.628C499.016 305.549 498.881 305.462 498.718 305.369C498.559 305.271 498.365 305.182 498.137 305.103C497.913 305.024 497.64 304.984 497.318 304.984C497.014 304.984 496.746 305.026 496.513 305.11C496.284 305.189 496.09 305.299 495.932 305.439C495.778 305.579 495.661 305.745 495.582 305.936C495.502 306.123 495.463 306.326 495.463 306.545C495.463 306.825 495.53 307.058 495.666 307.245C495.806 307.427 495.988 307.583 496.212 307.714C496.44 307.845 496.697 307.959 496.982 308.057C497.271 308.15 497.565 308.248 497.864 308.351C498.167 308.454 498.461 308.57 498.746 308.701C499.035 308.827 499.292 308.988 499.516 309.184C499.744 309.38 499.926 309.62 500.062 309.905C500.202 310.19 500.272 310.54 500.272 310.955C500.272 311.394 500.197 311.807 500.048 312.194C499.898 312.577 499.679 312.91 499.39 313.195C499.105 313.48 498.753 313.704 498.333 313.867C497.917 314.03 497.444 314.112 496.912 314.112C496.258 314.112 495.666 313.995 495.134 313.762C494.602 313.524 494.147 313.204 493.769 312.803L494.161 312.159C494.198 312.108 494.242 312.066 494.294 312.033C494.35 311.996 494.41 311.977 494.476 311.977C494.536 311.977 494.604 312.003 494.679 312.054C494.758 312.101 494.847 312.161 494.945 312.236C495.043 312.311 495.155 312.392 495.281 312.481C495.407 312.57 495.549 312.651 495.708 312.726C495.871 312.801 496.055 312.864 496.261 312.915C496.466 312.962 496.697 312.985 496.954 312.985C497.276 312.985 497.563 312.941 497.815 312.852C498.067 312.763 498.279 312.64 498.452 312.481C498.629 312.318 498.764 312.124 498.858 311.9C498.951 311.676 498.998 311.426 498.998 311.151C498.998 310.848 498.928 310.6 498.788 310.409C498.652 310.213 498.473 310.05 498.249 309.919C498.025 309.788 497.768 309.679 497.479 309.59C497.189 309.497 496.895 309.403 496.597 309.31C496.298 309.212 496.004 309.1 495.715 308.974C495.425 308.848 495.169 308.685 494.945 308.484C494.721 308.283 494.539 308.034 494.399 307.735C494.263 307.432 494.196 307.058 494.196 306.615C494.196 306.26 494.263 305.917 494.399 305.586C494.539 305.255 494.739 304.961 495.001 304.704C495.267 304.447 495.591 304.242 495.974 304.088C496.361 303.934 496.804 303.857 497.304 303.857C497.864 303.857 498.372 303.946 498.83 304.123C499.292 304.3 499.698 304.557 500.048 304.893L499.719 305.537ZM505.643 310.808C505.069 310.827 504.579 310.873 504.173 310.948C503.771 311.018 503.442 311.111 503.186 311.228C502.934 311.345 502.749 311.482 502.633 311.641C502.521 311.8 502.465 311.977 502.465 312.173C502.465 312.36 502.495 312.521 502.556 312.656C502.616 312.791 502.698 312.903 502.801 312.992C502.908 313.076 503.032 313.139 503.172 313.181C503.316 313.218 503.47 313.237 503.634 313.237C503.853 313.237 504.054 313.216 504.236 313.174C504.418 313.127 504.588 313.062 504.747 312.978C504.91 312.894 505.064 312.794 505.209 312.677C505.358 312.56 505.503 312.427 505.643 312.278V310.808ZM501.618 307.91C502.01 307.532 502.432 307.25 502.885 307.063C503.337 306.876 503.839 306.783 504.39 306.783C504.786 306.783 505.139 306.848 505.447 306.979C505.755 307.11 506.014 307.292 506.224 307.525C506.434 307.758 506.592 308.041 506.7 308.372C506.807 308.703 506.861 309.067 506.861 309.464V314H506.308C506.186 314 506.093 313.981 506.028 313.944C505.962 313.902 505.911 313.823 505.874 313.706L505.734 313.034C505.547 313.207 505.365 313.361 505.188 313.496C505.01 313.627 504.824 313.739 504.628 313.832C504.432 313.921 504.222 313.988 503.998 314.035C503.778 314.086 503.533 314.112 503.263 314.112C502.987 314.112 502.728 314.075 502.486 314C502.243 313.921 502.031 313.804 501.849 313.65C501.671 313.496 501.529 313.302 501.422 313.069C501.319 312.831 501.268 312.551 501.268 312.229C501.268 311.949 501.345 311.681 501.499 311.424C501.653 311.163 501.902 310.932 502.248 310.731C502.593 310.53 503.043 310.367 503.599 310.241C504.154 310.11 504.835 310.036 505.643 310.017V309.464C505.643 308.913 505.524 308.498 505.286 308.218C505.048 307.933 504.7 307.791 504.243 307.791C503.935 307.791 503.676 307.831 503.466 307.91C503.26 307.985 503.081 308.071 502.927 308.169C502.777 308.262 502.647 308.349 502.535 308.428C502.427 308.503 502.32 308.54 502.213 308.54C502.129 308.54 502.056 308.519 501.996 308.477C501.935 308.43 501.884 308.374 501.841 308.309L501.618 307.91ZM510.84 314.112C510.28 314.112 509.848 313.956 509.545 313.643C509.246 313.33 509.097 312.88 509.097 312.292V307.952H508.243C508.168 307.952 508.105 307.931 508.054 307.889C508.002 307.842 507.977 307.772 507.977 307.679V307.182L509.139 307.035L509.426 304.844C509.44 304.774 509.47 304.718 509.517 304.676C509.568 304.629 509.633 304.606 509.713 304.606H510.343V307.049H512.394V307.952H510.343V312.208C510.343 312.507 510.415 312.728 510.56 312.873C510.704 313.018 510.891 313.09 511.12 313.09C511.25 313.09 511.362 313.074 511.456 313.041C511.554 313.004 511.638 312.964 511.708 312.922C511.778 312.88 511.836 312.843 511.883 312.81C511.934 312.773 511.978 312.754 512.016 312.754C512.081 312.754 512.139 312.794 512.191 312.873L512.555 313.468C512.34 313.669 512.081 313.827 511.778 313.944C511.474 314.056 511.162 314.112 510.84 314.112Z" fill="#161A41" fill-opacity="0.35"/>
<defs>
<filter id="filter0_d_4288_5410" x="0" y="0" width="620" height="440" filterUnits="userSpaceOnUse" color-interpolation-filters="sRGB">
<feFlood flood-opacity="0" result="BackgroundImageFix"/>
<feColorMatrix in="SourceAlpha" type="matrix" values="0 0 0 0 0 0 0 0 0 0 0 0 0 0 0 0 0 0 127 0" result="hardAlpha"/>
<feOffset dy="64"/>
<feGaussianBlur stdDeviation="19"/>
<feComposite in2="hardAlpha" operator="out"/>
<feColorMatrix type="matrix" values="0 0 0 0 0 0 0 0 0 0 0 0 0 0 0 0 0 0 0.06 0"/>
<feBlend mode="normal" in2="BackgroundImageFix" result="effect1_dropShadow_4288_5410"/>
<feBlend mode="normal" in="SourceGraphic" in2="effect1_dropShadow_4288_5410" result="shape"/>
</filter>
<filter id="filter1_d_4288_5410" x="337.8" y="94.8" width="90.4" height="231.4" filterUnits="userSpaceOnUse" color-interpolation-filters="sRGB">
<feFlood flood-opacity="0" result="BackgroundImageFix"/>
<feColorMatrix in="SourceAlpha" type="matrix" values="0 0 0 0 0 0 0 0 0 0 0 0 0 0 0 0 0 0 127 0" result="hardAlpha"/>
<feOffset dy="15"/>
<feGaussianBlur stdDeviation="13.6"/>
<feComposite in2="hardAlpha" operator="out"/>
<feColorMatrix type="matrix" values="0 0 0 0 0.678431 0 0 0 0 0.933333 0 0 0 0 0.407843 0 0 0 0.58 0"/>
<feBlend mode="normal" in2="BackgroundImageFix" result="effect1_dropShadow_4288_5410"/>
<feBlend mode="normal" in="SourceGraphic" in2="effect1_dropShadow_4288_5410" result="shape"/>
</filter>
<filter id="filter2_d_4288_5410" x="355.5" y="90" width="134" height="114.5" filterUnits="userSpaceOnUse" color-interpolation-filters="sRGB">
<feFlood flood-opacity="0" result="BackgroundImageFix"/>
<feColorMatrix in="SourceAlpha" type="matrix" values="0 0 0 0 0 0 0 0 0 0 0 0 0 0 0 0 0 0 127 0" result="hardAlpha"/>
<feOffset dy="48"/>
<feGaussianBlur stdDeviation="15.25"/>
<feComposite in2="hardAlpha" operator="out"/>
<feColorMatrix type="matrix" values="0 0 0 0 0 0 0 0 0 0 0 0 0 0 0 0 0 0 0.03 0"/>
<feBlend mode="normal" in2="BackgroundImageFix" result="effect1_dropShadow_4288_5410"/>
<feBlend mode="normal" in="SourceGraphic" in2="effect1_dropShadow_4288_5410" result="shape"/>
</filter>
</defs>
</svg>
